<svg width="271" height="265" viewBox="0 0 271 265" fill="none" xmlns="http://www.w3.org/2000/svg">
<path d="M19.7393 222.557H156.577C162.869 222.557 167.988 217.426 167.988 211.121V66.2622C167.988 66.0868 167.912 65.9343 167.889 65.7666C167.868 65.6068 167.835 65.4488 167.79 65.2939C167.641 64.6441 167.321 64.0463 166.862 63.5632L113.62 10.2018C113.016 9.63056 112.245 9.26961 111.421 9.17251C111.261 9.15727 111.109 9.08102 110.934 9.08102H19.6937C13.3797 9.08102 8.23724 14.2121 8.23724 20.5173V211.121C8.23724 217.426 13.3949 222.557 19.7393 222.557ZM114.738 22.0955L155.003 62.4501H118.541C117.533 62.4501 116.565 62.0485 115.852 61.3336C115.139 60.6187 114.738 59.649 114.738 58.638V22.0955ZM15.8444 20.5173C15.8444 18.413 17.5713 16.7052 19.6937 16.7052H107.131V58.638C107.131 64.9432 112.25 70.0742 118.541 70.0742H160.381V211.121C160.381 212.132 159.98 213.102 159.267 213.817C158.554 214.532 157.586 214.933 156.577 214.933H19.7393C19.2338 214.939 18.7321 214.845 18.2628 214.657C17.7934 214.469 17.3657 214.19 17.004 213.836C16.6424 213.482 16.3538 213.06 16.1548 212.594C15.9559 212.128 15.8504 211.628 15.8444 211.121V20.5173Z" fill="#1BBDE3" fill-opacity="0.1"/>
<path d="M167.056 63.3798L167.051 63.3751L113.808 10.0136L113.808 10.0136L113.803 10.0084C113.158 9.39774 112.334 9.0118 111.452 8.90799L111.452 8.90792L111.446 8.90736C111.401 8.90299 111.356 8.89117 111.285 8.87236C111.274 8.86953 111.263 8.86656 111.251 8.86342C111.169 8.84188 111.059 8.81467 110.934 8.81467H19.6937C13.2331 8.81467 7.97089 14.0645 7.97089 20.5173V211.121C7.97089 217.575 13.2492 222.824 19.7393 222.824H156.577C163.016 222.824 168.255 217.573 168.255 211.121V66.2622C168.255 66.1373 168.227 66.0269 168.204 65.9421C168.179 65.8484 168.162 65.7925 168.153 65.7307C168.131 65.5606 168.096 65.3923 168.048 65.2273C167.888 64.5338 167.545 63.8959 167.056 63.3798ZM19.6937 16.9715H106.864V58.638C106.864 65.0897 112.103 70.3406 118.541 70.3406H160.115V211.121C160.115 212.062 159.742 212.964 159.078 213.628C158.415 214.293 157.515 214.667 156.577 214.667L19.7393 214.667L19.7361 214.667C19.2657 214.672 18.7987 214.585 18.3619 214.41C17.9251 214.235 17.527 213.975 17.1904 213.645C16.8537 213.316 16.585 212.923 16.3998 212.489C16.2147 212.056 16.1165 211.591 16.1108 211.119V20.5173C16.1108 18.5626 17.7158 16.9715 19.6937 16.9715ZM115.004 58.638V22.7395L154.361 62.1837H118.541C117.604 62.1837 116.704 61.8103 116.04 61.1454C115.377 60.4805 115.004 59.5786 115.004 58.638Z" stroke="#1BBDE3" stroke-opacity="0.5" stroke-width="0.53271"/>
<path d="M42.4694 100.571H133.756C134.764 100.571 135.732 100.169 136.445 99.4542C137.159 98.7393 137.559 97.7697 137.559 96.7587C137.559 95.7477 137.159 94.7781 136.445 94.0632C135.732 93.3482 134.764 92.9466 133.756 92.9466H42.4694C41.4607 92.9466 40.4932 93.3482 39.7799 94.0632C39.0666 94.7781 38.6658 95.7477 38.6658 96.7587C38.6658 97.7697 39.0666 98.7393 39.7799 99.4542C40.4932 100.169 41.4607 100.571 42.4694 100.571ZM42.4694 131.067H133.756C134.764 131.067 135.732 130.666 136.445 129.951C137.159 129.236 137.559 128.266 137.559 127.255C137.559 126.244 137.159 125.275 136.445 124.56C135.732 123.845 134.764 123.443 133.756 123.443H42.4694C41.4607 123.443 40.4932 123.845 39.7799 124.56C39.0666 125.275 38.6658 126.244 38.6658 127.255C38.6658 128.266 39.0666 129.236 39.7799 129.951C40.4932 130.666 41.4607 131.067 42.4694 131.067ZM42.4694 70.0742H80.5054C81.5141 70.0742 82.4816 69.6725 83.1949 68.9576C83.9082 68.2427 84.309 67.2731 84.309 66.2621C84.309 65.2511 83.9082 64.2814 83.1949 63.5665C82.4816 62.8516 81.5141 62.45 80.5054 62.45H42.4694C41.4607 62.45 40.4932 62.8516 39.7799 63.5665C39.0666 64.2814 38.6658 65.2511 38.6658 66.2621C38.6658 67.2731 39.0666 68.2427 39.7799 68.9576C40.4932 69.6725 41.4607 70.0742 42.4694 70.0742ZM42.4694 161.564H133.756C134.764 161.564 135.732 161.162 136.445 160.447C137.159 159.733 137.559 158.763 137.559 157.752C137.559 156.741 137.159 155.771 136.445 155.056C135.732 154.341 134.764 153.94 133.756 153.94H42.4694C41.4607 153.94 40.4932 154.341 39.7799 155.056C39.0666 155.771 38.6658 156.741 38.6658 157.752C38.6658 158.763 39.0666 159.733 39.7799 160.447C40.4932 161.162 41.4607 161.564 42.4694 161.564ZM42.4694 192.061H133.756C134.764 192.061 135.732 191.659 136.445 190.944C137.159 190.229 137.559 189.26 137.559 188.249C137.559 187.238 137.159 186.268 136.445 185.553C135.732 184.838 134.764 184.436 133.756 184.436H42.4694C41.4607 184.436 40.4932 184.838 39.7799 185.553C39.0666 186.268 38.6658 187.238 38.6658 188.249C38.6658 189.26 39.0666 190.229 39.7799 190.944C40.4932 191.659 41.4607 192.061 42.4694 192.061Z" fill="#1BBDE3" fill-opacity="0.1"/>
<path d="M171.792 47.2017H206.024V89.1346C206.024 95.4398 211.144 100.571 217.435 100.571H259.275V241.618C259.275 242.629 258.874 243.598 258.161 244.313C257.447 245.028 256.48 245.43 255.471 245.43H118.633C118.127 245.436 117.626 245.342 117.156 245.154C116.687 244.965 116.259 244.686 115.898 244.332C115.536 243.978 115.247 243.556 115.048 243.091C114.849 242.625 114.744 242.124 114.738 241.618V233.993C114.738 232.982 114.337 232.013 113.624 231.298C112.911 230.583 111.943 230.181 110.934 230.181C109.926 230.181 108.958 230.583 108.245 231.298C107.532 232.013 107.131 232.982 107.131 233.993V241.618C107.131 247.923 112.289 253.054 118.633 253.054H255.471C261.762 253.054 266.882 247.923 266.882 241.618V96.7587C266.882 96.5834 266.806 96.4309 266.783 96.2632C266.762 96.1034 266.729 95.9454 266.684 95.7905C266.535 95.1407 266.214 94.5429 265.756 94.0598L212.513 40.6983C211.914 40.1224 211.14 39.7629 210.315 39.6767C210.155 39.6538 210.003 39.5776 209.828 39.5776H171.792C170.783 39.5776 169.816 39.9792 169.102 40.6941C168.389 41.409 167.988 42.3786 167.988 43.3897C167.988 44.4007 168.389 45.3703 169.102 46.0852C169.816 46.8001 170.783 47.2017 171.792 47.2017ZM217.435 92.9467C216.426 92.9467 215.459 92.545 214.745 91.8301C214.032 91.1152 213.631 90.1456 213.631 89.1346V52.592L253.896 92.9467H217.435Z" fill="#1BBDE3" fill-opacity="0.1"/>
<path d="M171.792 47.4681H205.758V89.1346C205.758 95.5863 210.996 100.837 217.435 100.837H259.008V241.618C259.008 242.558 258.635 243.46 257.972 244.125C257.309 244.79 256.409 245.163 255.471 245.163L118.633 245.163L118.63 245.163C118.159 245.169 117.692 245.082 117.256 244.906C116.819 244.731 116.421 244.471 116.084 244.142C115.747 243.812 115.479 243.42 115.293 242.986C115.108 242.553 115.01 242.087 115.004 241.616V233.993C115.004 232.912 114.576 231.875 113.813 231.11C113.049 230.345 112.014 229.915 110.934 229.915C109.855 229.915 108.82 230.345 108.056 231.11C107.293 231.875 106.864 232.912 106.864 233.993V241.618C106.864 248.071 112.143 253.32 118.633 253.32H255.471C261.91 253.32 267.148 248.069 267.148 241.618V96.7587C267.148 96.6339 267.121 96.5235 267.098 96.4387C267.073 96.3449 267.055 96.2891 267.047 96.2273C267.024 96.0571 266.989 95.8888 266.942 95.7238C266.782 95.0303 266.439 94.3924 265.949 93.8764L265.944 93.8717L212.702 40.5102L212.702 40.5102L212.698 40.5063C212.057 39.8906 211.231 39.5058 210.348 39.4124C210.305 39.4058 210.264 39.3943 210.205 39.3778C210.188 39.3729 210.169 39.3675 210.147 39.3617C210.063 39.3385 209.953 39.3112 209.828 39.3112H171.792C170.712 39.3112 169.677 39.7411 168.914 40.506C168.151 41.2709 167.722 42.3082 167.722 43.3897C167.722 44.4711 168.151 45.5084 168.914 46.2733C169.677 47.0383 170.712 47.4681 171.792 47.4681ZM217.435 92.6803C216.497 92.6803 215.597 92.3069 214.934 91.642C214.271 90.9771 213.898 90.0752 213.898 89.1346V53.2361L253.254 92.6803H217.435Z" stroke="#1BBDE3" stroke-opacity="0.5" stroke-width="0.53271"/>
<path d="M187.006 131.067H232.649C233.658 131.067 234.625 130.666 235.339 129.951C236.052 129.236 236.453 128.266 236.453 127.255C236.453 126.244 236.052 125.275 235.339 124.56C234.625 123.845 233.658 123.443 232.649 123.443H187.006C185.997 123.443 185.03 123.845 184.317 124.56C183.603 125.275 183.203 126.244 183.203 127.255C183.203 128.266 183.603 129.236 184.317 129.951C185.03 130.666 185.997 131.067 187.006 131.067ZM187.006 161.564H232.649C233.658 161.564 234.625 161.162 235.339 160.448C236.052 159.733 236.453 158.763 236.453 157.752C236.453 156.741 236.052 155.771 235.339 155.056C234.625 154.342 233.658 153.94 232.649 153.94H187.006C185.997 153.94 185.03 154.342 184.317 155.056C183.603 155.771 183.203 156.741 183.203 157.752C183.203 158.763 183.603 159.733 184.317 160.448C185.03 161.162 185.997 161.564 187.006 161.564ZM187.006 192.061H232.649C233.658 192.061 234.625 191.659 235.339 190.944C236.052 190.229 236.453 189.26 236.453 188.249C236.453 187.238 236.052 186.268 235.339 185.553C234.625 184.838 233.658 184.436 232.649 184.436H187.006C185.997 184.436 185.03 184.838 184.317 185.553C183.603 186.268 183.203 187.238 183.203 188.249C183.203 189.26 183.603 190.229 184.317 190.944C185.03 191.659 185.997 192.061 187.006 192.061ZM187.006 222.557H232.649C233.658 222.557 234.625 222.156 235.339 221.441C236.052 220.726 236.453 219.756 236.453 218.745C236.453 217.734 236.052 216.765 235.339 216.05C234.625 215.335 233.658 214.933 232.649 214.933H187.006C185.997 214.933 185.03 215.335 184.317 216.05C183.603 216.765 183.203 217.734 183.203 218.745C183.203 219.756 183.603 220.726 184.317 221.441C185.03 222.156 185.997 222.557 187.006 222.557Z" fill="#1BBDE3" fill-opacity="0.1"/>
</svg>
