<svg width="1110" height="148" viewBox="0 0 1110 148" fill="none" xmlns="http://www.w3.org/2000/svg">
<path d="M4.68537 19.2405C4.68537 19.2405 11.9018 115.902 12.0241 116.324V140.334C12.026 142.044 12.7062 143.683 13.9152 144.892C15.1243 146.101 16.7636 146.781 18.4734 146.783H51.6412C53.3511 146.781 54.9904 146.101 56.1994 144.892C57.4085 143.683 58.0886 142.044 58.0906 140.334V116.324C58.2147 115.902 65.3885 19.5462 65.3885 19.5462C65.5571 18.7402 67.9193 9.22825 67.9193 9.22825C68.4048 7.29214 67.9767 5.27266 66.7465 3.69598C65.5163 2.11929 63.6636 1.217 61.6626 1.217H8.452C7.47151 1.21428 6.50342 1.43632 5.62211 1.86605C4.74081 2.29579 3.9697 2.92178 3.36804 3.69598C2.76309 4.46661 2.34284 5.36566 2.13953 6.32405C1.93623 7.28244 1.95532 8.27466 2.1953 9.22453C2.1953 9.22453 4.55753 18.7402 4.68537 19.2405ZM41.5066 141.254H28.6079V136.649C28.6079 136.649 29.0211 135.728 29.5288 135.728H40.584C41.0917 135.728 41.5049 136.649 41.5049 136.649L41.5066 141.254ZM52.562 140.334C52.5615 140.578 52.4643 140.812 52.2917 140.984C52.1192 141.157 51.8852 141.254 51.6412 141.254H46.85C46.9538 140.964 47.0352 136.649 47.0352 136.649C47.0333 134.939 46.3532 133.299 45.1441 132.09C43.935 130.881 42.2958 130.201 40.5859 130.199H29.5306C27.8207 130.201 26.1814 130.881 24.9723 132.09C23.7633 133.299 23.0832 134.939 23.0812 136.649C23.0812 136.649 23.1646 140.964 23.2683 141.254H18.4753C18.2312 141.254 17.9973 141.157 17.8247 140.984C17.6521 140.812 17.555 140.578 17.5545 140.334V120.987H52.562V140.334ZM52.8232 114.603C52.8055 114.835 52.7012 115.052 52.5309 115.21C52.3607 115.369 52.1369 115.458 51.9042 115.459H18.2104C17.9777 115.458 17.754 115.369 17.5837 115.21C17.4134 115.052 17.3091 114.835 17.2914 114.603C17.2914 114.603 10.1769 18.5957 9.99159 17.8009H60.1211C59.9359 18.5957 52.8232 114.603 52.8232 114.603ZM7.72572 7.09758C7.81172 6.98719 7.92193 6.89805 8.04785 6.83702C8.17378 6.77598 8.31206 6.74471 8.452 6.74559H61.6607C61.8014 6.74396 61.9405 6.77491 62.0672 6.83601C62.1939 6.8971 62.3048 6.98668 62.3911 7.09775C62.4774 7.20882 62.5368 7.33835 62.5647 7.47622C62.5927 7.61408 62.5882 7.75653 62.5519 7.89242L61.4681 12.2723H8.64464L7.55893 7.88873C7.52372 7.75294 7.52051 7.61082 7.54944 7.47356C7.57837 7.3363 7.63869 7.2076 7.72572 7.09758Z" fill="#1BBDE3" fill-opacity="0.2"/>
<path d="M32.0689 43.6262C27.9484 49.4715 23.0424 57.392 23.0609 61.9127C23.0831 67.2319 27.1129 71.9212 32.4395 72.8179C33.4678 72.9902 34.4978 73.081 35.502 73.081C42.774 73.081 47.8894 68.5492 47.945 62.0683C47.9765 58.4629 44.9454 52.2618 38.937 43.6429C37.3677 41.3881 33.6381 41.3881 32.0689 43.6262ZM35.5001 67.5506C34.7818 67.5489 34.0648 67.4875 33.3565 67.3671C30.6478 66.9095 28.5987 64.5529 28.5876 61.8905C28.582 60.173 30.7238 55.3911 35.4909 48.3914C40.284 55.4948 42.4313 60.3138 42.4165 62.0165C42.3831 66.0962 38.8221 67.5506 35.5001 67.5506Z" fill="#1BBDE3" fill-opacity="0.2"/>
<path d="M65.985 19.632L65.9829 19.6606L65.9675 19.8672L65.9075 20.673L65.6796 23.7319C65.4832 26.3675 65.2025 30.133 64.8652 34.653C64.1908 43.693 63.2901 55.7507 62.3857 67.8216C61.4812 79.8925 60.5728 91.9767 59.8828 101.07C59.5378 105.616 59.2473 109.415 59.0392 112.091C58.9352 113.429 58.8517 114.486 58.7923 115.216C58.7626 115.581 58.7388 115.865 58.7213 116.062C58.7127 116.16 58.7054 116.239 58.6997 116.295C58.697 116.322 58.6943 116.347 58.6918 116.368V140.334V140.334C58.6897 142.203 57.9463 143.995 56.6246 145.317C55.3029 146.639 53.511 147.382 51.6419 147.384H51.6412H18.4734H18.4727C16.6036 147.382 14.8117 146.639 13.4901 145.317C12.1684 143.995 11.4249 142.203 11.4228 140.334V140.334V116.367C11.4203 116.347 11.4177 116.322 11.4149 116.295C11.4092 116.238 11.402 116.16 11.3933 116.061C11.3759 115.864 11.352 115.579 11.3222 115.213C11.2625 114.481 11.1787 113.42 11.0742 112.078C10.8651 109.394 10.5731 105.583 10.2263 101.022C9.5325 91.9004 8.61897 79.7779 7.70927 67.6688C6.79957 55.5597 5.89369 43.4638 5.21524 34.3952C4.87602 29.8609 4.59365 26.0834 4.39608 23.4395L4.16684 20.3709L4.10647 19.5625L4.09099 19.3553L4.08966 19.3374C3.97821 18.8952 3.38568 16.5117 2.80886 14.1899L1.98284 10.8641L1.71349 9.77927L1.6383 9.4764L1.61852 9.39672L1.61345 9.3763L1.61234 9.37182L1.61217 9.37114L1.61185 9.36984L1.61177 9.36951C1.61175 9.36944 1.61174 9.3694 2.1953 9.22453C1.95532 8.27466 1.93623 7.28244 2.13953 6.32405C2.34284 5.36566 2.76309 4.46661 3.36804 3.69598L65.985 19.632ZM65.985 19.632C66.0932 19.1382 66.7038 16.6487 67.3009 14.229C67.6067 12.9899 67.9072 11.7759 68.1312 10.8717L68.4011 9.78333L68.4763 9.48013L68.4961 9.40045L68.5012 9.38006L68.5025 9.3749L68.5026 9.37447M65.985 19.632L68.5026 9.37447M8.45281 0.61573C7.38073 0.612881 6.32222 0.855727 5.35858 1.3256C4.39514 1.79539 3.55209 2.47964 2.89418 3.32586L61.6626 1.217C63.6636 1.217 65.5163 2.11929 66.7465 3.69598C67.9767 5.27266 68.4048 7.29214 67.9193 9.22825C68.5029 9.37317 68.5029 9.37321 68.5029 9.37328L68.5028 9.37341M8.45281 0.61573C8.4531 0.615731 8.45338 0.615732 8.45367 0.615733L8.452 1.217V0.61573H8.45281ZM8.45281 0.61573H61.6626C63.8483 0.61573 65.8761 1.603 67.2206 3.3261C68.5643 5.04822 69.033 7.25759 68.5028 9.37341M68.5028 9.37341L68.5028 9.3736L68.5026 9.37447M68.5028 9.37341C68.5027 9.37377 68.5027 9.37412 68.5026 9.37447M22.5948 140.442C22.5985 140.515 22.6022 140.586 22.6061 140.653H18.4765C18.3915 140.653 18.31 140.619 18.2499 140.559C18.19 140.499 18.1561 140.418 18.1558 140.333C18.1558 140.333 18.1558 140.333 18.1558 140.332L18.1558 121.589H51.9607V140.332C51.9605 140.417 51.9267 140.499 51.8666 140.559C51.8065 140.619 51.725 140.653 51.64 140.653H47.512C47.5159 140.586 47.5196 140.515 47.5232 140.442C47.5458 139.991 47.5658 139.419 47.5825 138.86C47.5993 138.301 47.6127 137.751 47.622 137.341C47.6242 137.242 47.6262 137.15 47.628 137.069C47.6298 136.983 47.6314 136.908 47.6327 136.847L47.6354 136.709L47.6361 136.673L47.6363 136.663L47.6364 136.661L47.6364 136.66L47.6364 136.66L47.0352 136.649L47.6365 136.66L47.6365 136.648C47.6344 134.779 46.8909 132.987 45.5693 131.665C44.2476 130.343 42.4557 129.6 40.5866 129.598H40.5859H29.5306H29.5299C27.6608 129.6 25.8688 130.343 24.5472 131.665C23.2255 132.987 22.4821 134.779 22.4798 136.648L22.4801 136.66L22.4801 136.66L22.4801 136.661L22.4801 136.663L22.4803 136.673L22.481 136.709L22.4839 136.847C22.4863 136.966 22.49 137.136 22.4947 137.341C22.5042 137.751 22.5179 138.301 22.5349 138.861C22.5518 139.419 22.5721 139.991 22.5948 140.442ZM17.9935 114.77C17.9337 114.715 17.8971 114.638 17.8909 114.557L17.8907 114.554L17.8897 114.541L17.8859 114.489L17.8706 114.283L17.8111 113.48L17.5849 110.431C17.39 107.805 17.1114 104.051 16.7765 99.5447C16.1066 90.5316 15.2115 78.5057 14.3106 66.4551C13.4097 54.4044 12.503 42.3287 11.8099 33.2159C11.4634 28.6595 11.1702 24.8435 10.9579 22.1414C10.8517 20.7905 10.7657 19.7173 10.7033 18.969C10.6853 18.753 10.6692 18.5636 10.6551 18.4021H59.4576C59.4435 18.5636 59.4275 18.753 59.4095 18.969C59.3471 19.7173 59.2611 20.7906 59.1549 22.1414C58.9426 24.8435 58.6496 28.6596 58.3031 33.2159C57.6102 42.3287 56.7037 54.4044 55.8031 66.4551C54.9024 78.5058 54.0075 90.5316 53.3378 99.5447C53.0029 104.051 52.7244 107.805 52.5295 110.431L52.3035 113.48L52.244 114.283L52.2287 114.489L52.2248 114.541L52.2239 114.554L52.2236 114.557C52.2174 114.639 52.1808 114.715 52.1211 114.77C52.0617 114.826 51.9836 114.857 51.9023 114.857C51.9019 114.857 51.9015 114.857 51.9012 114.857H18.2134C18.2131 114.857 18.2127 114.857 18.2123 114.857C18.131 114.857 18.053 114.826 17.9935 114.77ZM8.1973 7.4706L8.19731 7.47061L8.20003 7.46712C8.22941 7.42941 8.26706 7.39895 8.31011 7.37809C8.3531 7.35725 8.40036 7.34655 8.44822 7.34685V7.34686H8.452L61.6607 7.3469L61.6677 7.34682C61.7156 7.34627 61.7629 7.35681 61.8061 7.3776C61.8493 7.39844 61.887 7.42895 61.9163 7.46667L62.3911 7.09775L61.9163 7.46668C61.9457 7.50449 61.9659 7.54858 61.9754 7.59552C61.9849 7.64229 61.9834 7.69078 61.971 7.73718L61.9709 7.73715L61.9682 7.74799L60.9975 11.671H9.11516L8.14257 7.74417L8.14261 7.74417L8.14095 7.73778C8.1291 7.69209 8.12798 7.64409 8.13778 7.59757C8.14757 7.55115 8.16795 7.5077 8.1973 7.4706ZM32.3397 73.4109L32.3401 73.4109L47.945 62.0683L48.5463 62.0736C48.5463 62.0735 48.5463 62.0735 48.5463 62.0735C48.5633 60.1264 47.7613 57.5709 46.2461 54.4716C44.7226 51.3552 42.4441 47.6223 39.4305 43.2994C38.5141 41.9827 36.9881 41.3507 35.5039 41.3484C34.0201 41.3461 32.494 41.9728 31.5768 43.2806C29.51 46.2127 27.2376 49.677 25.4817 52.9842C23.7419 56.2611 22.4497 59.49 22.4596 61.9151C22.4831 67.5333 26.7308 72.4666 32.3397 73.4109ZM33.4573 66.7744L33.4567 66.7743C31.0235 66.3632 29.1988 64.2451 29.1889 61.8881C29.1879 61.5609 29.2941 61.0168 29.5622 60.2363C29.8259 59.4686 30.2306 58.5158 30.7884 57.3884C31.8238 55.2958 33.3735 52.6281 35.4887 49.4691C37.6185 52.6782 39.1773 55.3808 40.2171 57.4946C40.7768 58.6324 41.1823 59.5918 41.4457 60.3626C41.7137 61.1471 41.818 61.6895 41.8152 62.0112V62.0115C41.8002 63.8455 41.0074 65.0465 39.8579 65.8132C38.679 66.5996 37.0881 66.9491 35.5015 66.9493C34.8165 66.9477 34.1327 66.8892 33.4573 66.7744ZM40.9051 140.653H29.2092V136.791C29.2092 136.791 29.2093 136.791 29.2093 136.791C29.2478 136.719 29.3015 136.628 29.3649 136.541C29.4307 136.45 29.4923 136.384 29.5417 136.345C29.5507 136.338 29.558 136.333 29.5635 136.329H40.5492C40.5548 136.333 40.562 136.338 40.5711 136.345C40.6205 136.384 40.6821 136.45 40.7479 136.541C40.8112 136.628 40.8649 136.719 40.9034 136.791C40.9035 136.791 40.9036 136.791 40.9036 136.791L40.9051 140.653Z" stroke="#1BBDE3" stroke-opacity="0.7" stroke-width="1.20255"/>
<path d="M175.057 6.65845H140.488C138.662 6.66073 136.911 7.38702 135.62 8.67802C134.329 9.96901 133.603 11.7193 133.601 13.5451V16.3366C133.603 18.1623 134.329 19.9127 135.62 21.2036C136.911 22.4946 138.662 23.2209 140.488 23.2232H145.484V33.6662C143.202 33.6961 141.023 34.623 139.419 36.2464C137.815 37.8699 136.914 40.0594 136.911 42.3418V48.4305H135.182C131.803 48.4335 128.563 49.7778 126.174 52.168C123.786 54.5582 122.443 57.7989 122.442 61.1781V128.604C122.446 131.981 123.789 135.219 126.177 137.607C128.565 139.995 131.803 141.338 135.18 141.342H172.362C175.739 141.338 178.977 139.995 181.365 137.607C183.753 135.219 185.096 131.981 185.1 128.604V61.1781C185.096 57.8011 183.753 54.5635 181.365 52.1755C178.977 49.7876 175.739 48.4444 172.362 48.4406H170.634V42.3476C170.633 40.063 169.731 37.8708 168.125 36.246C166.519 34.6211 164.338 33.6943 162.053 33.6662V23.2232H174.693C174.788 23.8147 175.091 24.3528 175.547 24.7413C176.003 25.1298 176.583 25.3433 177.182 25.3435H188.705C189.374 25.3435 190.015 25.0779 190.488 24.6052C190.961 24.1325 191.226 23.4913 191.226 22.8228C191.222 18.5364 189.516 14.4269 186.485 11.3964C183.454 8.36587 179.344 6.66188 175.057 6.65845ZM180.059 61.1781V128.604C180.056 130.644 179.245 132.601 177.802 134.043C176.359 135.486 174.403 136.298 172.362 136.3H135.18C133.139 136.298 131.183 135.486 129.74 134.043C128.297 132.601 127.486 130.644 127.483 128.604V61.1781C127.486 59.1377 128.297 57.1815 129.74 55.7387C131.183 54.2959 133.139 53.4843 135.18 53.482H172.362C174.403 53.4843 176.359 54.2959 177.802 55.7387C179.245 57.1815 180.056 59.1377 180.059 61.1781ZM165.585 42.3476V48.4362H141.962V42.3476C141.964 41.3837 142.347 40.4596 143.028 39.7775C143.709 39.0954 144.633 38.7107 145.597 38.7077H161.944C162.909 38.7088 163.834 39.0926 164.517 39.775C165.2 40.4573 165.584 41.3825 165.585 42.3476ZM157.012 33.6662H150.53V23.2232H157.012V33.6662ZM178.952 20.3021C178.532 19.6525 177.956 19.1183 177.277 18.748C176.598 18.3777 175.837 18.183 175.063 18.1818H140.493C140.004 18.181 139.535 17.9864 139.189 17.6405C138.844 17.2946 138.649 16.8257 138.648 16.3366V13.5451C138.649 13.0559 138.844 12.587 139.189 12.2412C139.535 11.8953 140.004 11.7007 140.493 11.6999H175.063C177.574 11.7032 180.011 12.5546 181.977 14.1159C183.944 15.6773 185.325 17.8571 185.898 20.3021H178.952Z" fill="#1BBDE3" fill-opacity="0.2"/>
<path d="M134.738 74.1808V115.593C134.738 116.261 135.003 116.902 135.476 117.375C135.949 117.848 136.59 118.113 137.258 118.113H170.286C170.954 118.113 171.595 117.848 172.068 117.375C172.541 116.902 172.806 116.261 172.806 115.593V74.1808C172.806 73.5123 172.541 72.8712 172.068 72.3984C171.595 71.9257 170.954 71.6601 170.286 71.6601H137.258C136.59 71.6601 135.949 71.9257 135.476 72.3984C135.003 72.8712 134.738 73.5123 134.738 74.1808ZM139.779 76.7016H167.765V113.072H139.779V76.7016Z" fill="#1BBDE3" fill-opacity="0.2"/>
<path d="M185.111 19.7008C184.483 17.6886 183.263 15.9048 181.603 14.5868C179.743 13.1098 177.438 12.3044 175.063 12.3012C175.063 12.3012 175.063 12.3012 175.062 12.3012L140.494 12.3012M185.111 19.7008L140.493 11.6999M185.111 19.7008H179.267C178.814 19.0906 178.234 18.5849 177.565 18.2201C176.798 17.8018 175.938 17.5819 175.064 17.5805H175.063L140.494 17.5805L140.493 18.1818V17.5805H140.494C140.164 17.5798 139.848 17.4485 139.615 17.2153C139.381 16.982 139.25 16.6656 139.249 16.3357M185.111 19.7008L139.249 16.3357M140.494 12.3012H140.493V11.6999M140.494 12.3012C140.494 12.3012 140.494 12.3012 140.494 12.3012L140.493 11.6999M140.494 12.3012C140.164 12.3018 139.848 12.4331 139.615 12.6663C139.381 12.8997 139.25 13.216 139.249 13.546M140.493 11.6999C140.004 11.7007 139.535 11.8953 139.189 12.2412C138.844 12.587 138.649 13.0559 138.648 13.5451M139.249 13.546V13.5451H138.648M139.249 13.546V16.3357M139.249 13.546L138.648 13.5451M138.648 13.5451L139.249 16.3357M139.249 16.3357L138.648 16.3366H139.249V16.3357ZM164.984 47.835L164.984 42.3486L164.984 42.3476M164.984 47.835L161.944 38.7077C162.909 38.7088 163.834 39.0926 164.517 39.775C165.2 40.4573 165.584 41.3825 165.585 42.3476H164.984M164.984 47.835H142.564V42.3486C142.565 41.5436 142.885 40.772 143.454 40.2023C144.022 39.633 144.793 39.3118 145.597 39.309C145.598 39.309 145.598 39.309 145.599 39.309H161.943M164.984 47.835L161.943 39.309M164.984 42.3476C164.982 41.542 164.662 40.7698 164.092 40.2002C163.522 39.6306 162.75 39.3101 161.944 39.309C161.944 39.309 161.943 39.309 161.943 39.309M164.984 42.3476L161.943 39.309M175.058 6.05717H175.057L140.488 6.05717L140.487 6.05717C138.502 6.05966 136.599 6.84928 135.195 8.25285C133.792 9.65643 133.002 11.5594 133 13.5443V13.5451V16.3366V16.3373C133.002 18.3223 133.792 20.2252 135.195 21.6288C136.599 23.0324 138.502 23.822 140.487 23.8245H140.488H144.883V33.0918C142.661 33.2632 140.567 34.2293 138.991 35.8238C137.276 37.5596 136.313 39.9007 136.31 42.3411V42.3418V47.8292L135.182 47.8292L135.182 47.8292C131.643 47.8324 128.251 49.24 125.749 51.7429C123.248 54.2458 121.842 57.6393 121.841 61.1779V61.1781L121.841 128.604L121.841 128.605C121.845 132.141 123.251 135.531 125.752 138.032C128.252 140.532 131.643 141.939 135.179 141.943H135.18H172.362H172.363C175.899 141.939 179.29 140.532 181.79 138.032C184.291 135.531 185.697 132.141 185.701 128.605V128.604V61.1781L185.701 61.1775C185.697 57.6412 184.291 54.2509 181.79 51.7504C179.29 49.2498 175.899 47.8433 172.363 47.8393H172.362H171.235V42.3476L171.235 42.3473C171.234 39.9045 170.27 37.5606 168.553 35.8233C166.976 34.2273 164.879 33.2612 162.655 33.0913V23.8245H174.225C174.405 24.3554 174.726 24.8314 175.158 25.199C175.722 25.6802 176.44 25.9445 177.182 25.9448H177.182H188.705C189.533 25.9448 190.327 25.6159 190.913 25.0304C191.498 24.4449 191.827 23.6508 191.827 22.8228V22.8221C191.823 18.3765 190.054 14.1143 186.91 10.9712C183.766 7.82804 179.504 6.06073 175.058 6.05717ZM179.457 61.1788V128.603C179.455 130.484 178.707 132.288 177.377 133.618C176.047 134.948 174.243 135.697 172.362 135.699H135.18C133.299 135.697 131.495 134.948 130.165 133.618C128.835 132.288 128.087 130.485 128.085 128.604C128.085 128.604 128.085 128.603 128.085 128.603V61.1788C128.085 61.1787 128.085 61.1785 128.085 61.1784C128.087 59.2973 128.835 57.494 130.165 56.1639C131.495 54.8336 133.299 54.0854 135.18 54.0833H172.362C174.243 54.0854 176.047 54.8336 177.377 56.1639C178.707 57.4941 179.455 59.2976 179.457 61.1788ZM156.411 33.065H151.131V23.8245H156.411V33.065ZM134.136 74.1808V115.593C134.136 116.421 134.465 117.215 135.051 117.8C135.636 118.386 136.43 118.715 137.258 118.715H170.286C171.114 118.715 171.908 118.386 172.493 117.8C173.079 117.215 173.408 116.421 173.408 115.593V74.1808C173.408 73.3528 173.079 72.5587 172.493 71.9733C171.908 71.3878 171.114 71.0588 170.286 71.0588H137.258C136.43 71.0588 135.636 71.3878 135.051 71.9733C134.465 72.5587 134.136 73.3528 134.136 74.1808ZM140.38 77.3028H167.164V112.471H140.38V77.3028Z" stroke="#1BBDE3" stroke-opacity="0.7" stroke-width="1.20255"/>
<path d="M302.427 8.24245C294.698 3.65099 285.875 1.22432 276.884 1.217C267.894 1.20967 259.067 3.62196 251.33 8.20082C248.777 9.73801 246.891 12.1752 246.045 15.0327C245.198 17.8902 245.452 20.961 246.756 23.6409L263.822 58.3122C263.64 58.484 263.877 133.71 263.785 133.902C264.314 151.039 289.175 151.114 289.727 133.902V59.1969C289.836 59.0679 289.932 58.9285 290.013 58.7806L307.223 23.8101C308.56 21.0927 308.809 17.9671 307.917 15.0727C307.026 12.1783 305.062 9.73652 302.427 8.24245ZM284.526 60.2299V68.5822H268.989V60.2299C268.989 60.2299 282.106 60.2299 284.526 60.2299ZM276.756 141.698C274.693 141.692 272.717 140.867 271.261 139.406C269.805 137.944 268.988 135.965 268.989 133.902V73.7862H284.523V133.902C284.525 135.965 283.708 137.944 282.252 139.406C280.795 140.867 278.819 141.692 276.756 141.698ZM302.552 21.5125L286.058 55.026H284.518L286.482 49.7882C286.725 49.1419 286.7 48.4259 286.415 47.7976C286.129 47.1694 285.605 46.6804 284.959 46.4381C284.313 46.1959 283.597 46.2203 282.968 46.506C282.34 46.7918 281.851 47.3153 281.609 47.9616L279.631 53.2332V48.0527C279.631 47.3626 279.357 46.7007 278.869 46.2128C278.381 45.7248 277.72 45.4507 277.029 45.4507C276.339 45.4507 275.678 45.7248 275.19 46.2128C274.702 46.7007 274.428 47.3626 274.428 48.0527V53.4544L272.372 47.9642C272.13 47.3179 271.641 46.7944 271.012 46.5087C270.384 46.2229 269.668 46.1985 269.022 46.4407C268.376 46.683 267.852 47.172 267.566 47.8002C267.281 48.4285 267.256 49.1445 267.498 49.7908L269.463 55.0312H268.006L251.426 21.3486C250.693 19.8441 250.549 18.1198 251.024 16.5148C251.498 14.9098 252.556 13.5405 253.989 12.6762C260.762 8.66135 268.474 6.50269 276.348 6.41772C284.221 6.33276 291.978 8.32449 298.837 12.1922C299.714 12.5337 300.512 13.0522 301.181 13.7153C301.849 14.3785 302.374 15.1722 302.722 16.0469C303.071 16.9217 303.236 17.8588 303.207 18.8C303.177 19.7412 302.955 20.6663 302.552 21.5177V21.5125Z" fill="#1BBDE3" fill-opacity="0.2"/>
<path d="M302.427 8.24245C294.698 3.65099 285.875 1.22432 276.884 1.217C267.894 1.20967 259.067 3.62196 251.33 8.20082C248.777 9.73801 246.891 12.1752 246.045 15.0327C245.198 17.8902 245.452 20.961 246.756 23.6409L263.822 58.3122C263.64 58.484 263.877 133.71 263.785 133.902C264.314 151.039 289.175 151.114 289.727 133.902V59.1969C289.836 59.0679 289.932 58.9285 290.013 58.7806L307.223 23.8101C308.56 21.0927 308.809 17.9671 307.917 15.0727C307.026 12.1783 305.062 9.73652 302.427 8.24245ZM284.526 60.2299V68.5822H268.989V60.2299C268.989 60.2299 282.106 60.2299 284.526 60.2299ZM276.756 141.698C274.693 141.692 272.717 140.867 271.261 139.406C269.805 137.944 268.988 135.965 268.989 133.902V73.7862H284.523V133.902C284.525 135.965 283.708 137.944 282.252 139.406C280.795 140.867 278.819 141.692 276.756 141.698ZM302.552 21.5125L286.058 55.026H284.518L286.482 49.7882C286.725 49.1419 286.7 48.4259 286.415 47.7976C286.129 47.1694 285.605 46.6804 284.959 46.4381C284.313 46.1959 283.597 46.2203 282.968 46.506C282.34 46.7918 281.851 47.3153 281.609 47.9616L279.631 53.2332V48.0527C279.631 47.3626 279.357 46.7007 278.869 46.2128C278.381 45.7248 277.72 45.4507 277.029 45.4507C276.339 45.4507 275.678 45.7248 275.19 46.2128C274.702 46.7007 274.428 47.3626 274.428 48.0527V53.4544L272.372 47.9642C272.13 47.3179 271.641 46.7944 271.012 46.5087C270.384 46.2229 269.668 46.1985 269.022 46.4407C268.376 46.683 267.852 47.172 267.566 47.8002C267.281 48.4285 267.256 49.1445 267.498 49.7908L269.463 55.0312H268.006L251.426 21.3486C250.693 19.8441 250.549 18.1198 251.024 16.5148C251.498 14.9098 252.556 13.5405 253.989 12.6762C260.762 8.66135 268.474 6.50269 276.348 6.41772C284.221 6.33276 291.978 8.32449 298.837 12.1922C299.714 12.5337 300.512 13.0522 301.181 13.7153C301.849 14.3785 302.374 15.1722 302.722 16.0469C303.071 16.9217 303.236 17.8588 303.207 18.8C303.177 19.7412 302.955 20.6663 302.552 21.5177V21.5125Z" fill="#1BBDE3" fill-opacity="0.2"/>
<path d="M268.388 133.902C268.387 136.124 269.267 138.256 270.835 139.83C272.403 141.404 274.532 142.292 276.754 142.299L276.758 142.299C278.98 142.292 281.109 141.404 282.677 139.83C284.246 138.256 285.126 136.124 285.124 133.902V73.7862V73.1849H284.523H268.989H268.388V73.7862V133.902ZM268.388 133.902L268.989 133.902H268.388V133.902ZM303.075 21.77L303.092 21.778L286.598 55.2915L286.433 55.6272H286.058H284.518H283.65L283.955 54.8148L285.919 49.5772C286.106 49.0802 286.087 48.5296 285.867 48.0465C285.647 47.5634 285.245 47.1874 284.748 47.0012C284.251 46.8149 283.7 46.8337 283.217 47.0534C282.734 47.2731 282.358 47.6757 282.172 48.1726L282.172 48.1728L280.194 53.4444L279.03 53.2332V48.0527C279.03 47.5221 278.819 47.0132 278.444 46.638C278.069 46.2627 277.56 46.052 277.029 46.052C276.499 46.052 275.99 46.2628 275.615 46.638C275.24 47.0131 275.029 47.522 275.029 48.0527V53.4544L273.864 53.6652L271.809 48.1752C271.809 48.1752 271.809 48.1751 271.809 48.175C271.623 47.6782 271.247 47.2756 270.764 47.056C270.28 46.8363 269.73 46.8175 269.233 47.0038C268.736 47.19 268.333 47.5661 268.114 48.0491C267.894 48.5322 267.875 49.0828 268.061 49.5797L303.075 21.77ZM303.075 21.77L303.096 21.7746C303.533 20.8486 303.776 19.8424 303.807 18.8187C303.839 17.795 303.66 16.7758 303.281 15.8244C302.902 14.873 302.331 14.0097 301.604 13.2885L301.181 13.7153L301.604 13.2885C300.887 12.5774 300.034 12.0194 299.095 11.6479C292.154 7.74176 284.307 5.73053 276.341 5.81648C268.362 5.90259 260.547 8.09023 253.682 12.159L253.682 12.159L253.678 12.1613C252.117 13.1032 250.964 14.5954 250.447 16.3444C249.93 18.0934 250.087 19.9725 250.886 21.612L250.887 21.6141L267.466 55.2967L267.632 55.6324H268.006H269.463H270.33L270.026 54.8201L268.061 49.5798L303.075 21.77ZM302.12 8.7594L302.12 8.75951L302.131 8.76546C304.632 10.184 306.496 12.502 307.342 15.2496C308.189 17.9975 307.953 20.9648 306.683 23.5446L307.223 23.8101L306.683 23.5446L289.48 58.5018C289.419 58.6107 289.348 58.7136 289.268 58.8092L289.126 58.9771V59.1969V133.893C288.591 150.284 264.928 150.263 264.388 133.921C264.389 133.902 264.39 133.879 264.39 133.858C264.392 133.814 264.393 133.753 264.394 133.678C264.397 133.527 264.398 133.308 264.4 133.027C264.403 132.464 264.406 131.645 264.407 130.607C264.41 128.53 264.408 125.575 264.405 122.034C264.401 117.377 264.393 111.706 264.384 105.688C264.38 102.554 264.375 99.3265 264.371 96.0986C264.358 86.6726 264.349 77.2478 264.353 70.169C264.356 66.6294 264.362 63.6772 264.373 61.6049C264.379 60.5684 264.385 59.7538 264.394 59.1962C264.398 58.9323 264.402 58.7289 264.406 58.5877L264.557 58.4451L264.361 58.0467L247.296 23.3779C247.296 23.3775 247.296 23.377 247.296 23.3766C246.058 20.8321 245.817 17.9165 246.621 15.2035C247.425 12.4907 249.214 10.1769 251.638 8.71711C259.282 4.19396 268.002 1.81103 276.884 1.81827C285.766 1.82551 294.483 4.22305 302.12 8.7594ZM285.127 60.2299V59.6286H284.526H284.511H284.497H284.482H284.467H284.452H284.436H284.421H284.405H284.388H284.372H284.355H284.338H284.321H284.304H284.286H284.268H284.25H284.232H284.213H284.195H284.176H284.156H284.137H284.117H284.098H284.077H284.057H284.037H284.016H283.995H283.974H283.952H283.931H283.909H283.887H283.865H283.843H283.82H283.797H283.774H283.751H283.727H283.704H283.68H283.656H283.632H283.607H283.583H283.558H283.533H283.508H283.482H283.457H283.431H283.405H283.379H283.353H283.326H283.299H283.273H283.246H283.218H283.191H283.163H283.136H283.108H283.08H283.051H283.023H282.994H282.965H282.936H282.907H282.878H282.849H282.819H282.789H282.759H282.729H282.699H282.668H282.638H282.607H282.576H282.545H282.514H282.482H282.451H282.419H282.387H282.355H282.323H282.291H282.259H282.226H282.193H282.161H282.128H282.094H282.061H282.028H281.994H281.96H281.927H281.893H281.859H281.824H281.79H281.756H281.721H281.686H281.651H281.616H281.581H281.546H281.511H281.475H281.44H281.404H281.368H281.332H281.296H281.26H281.224H281.187H281.151H281.114H281.077H281.04H281.003H280.966H280.929H280.892H280.855H280.817H280.78H280.742H280.704H280.666H280.628H280.59H280.552H280.514H280.475H280.437H280.398H280.36H280.321H280.282H280.243H280.204H280.165H280.126H280.087H280.048H280.008H279.969H279.929H279.89H279.85H279.81H279.77H279.731H279.691H279.651H279.61H279.57H279.53H279.49H279.449H279.409H279.368H279.328H279.287H279.246H279.206H279.165H279.124H279.083H279.042H279.001H278.96H278.919H278.878H278.836H278.795H278.754H278.712H278.671H278.63H278.588H278.547H278.505H278.463H278.422H278.38H278.338H278.296H278.255H278.213H278.171H278.129H278.087H278.045H278.003H277.961H277.919H277.877H277.835H277.793H277.751H277.709H277.666H277.624H277.582H277.54H277.498H277.455H277.413H277.371H277.328H277.286H277.244H277.202H277.159H277.117H277.075H277.032H276.99H276.948H276.905H276.863H276.821H276.778H276.736H276.694H276.651H276.609H276.567H276.524H276.482H276.44H276.398H276.355H276.313H276.271H276.229H276.187H276.145H276.102H276.06H276.018H275.976H275.934H275.892H275.85H275.808H275.766H275.724H275.682H275.641H275.599H275.557H275.515H275.474H275.432H275.39H275.349H275.307H275.266H275.224H275.183H275.141H275.1H275.059H275.018H274.976H274.935H274.894H274.853H274.812H274.771H274.73H274.69H274.649H274.608H274.568H274.527H274.486H274.446H274.406H274.365H274.325H274.285H274.245H274.205H274.165H274.125H274.085H274.045H274.006H273.966H273.926H273.887H273.848H273.808H273.769H273.73H273.691H273.652H273.613H273.574H273.536H273.497H273.458H273.42H273.382H273.343H273.305H273.267H273.229H273.191H273.153H273.116H273.078H273.041H273.003H272.966H272.929H272.892H272.855H272.818H272.781H272.745H272.708H272.672H272.635H272.599H272.563H272.527H272.491H272.456H272.42H272.385H272.349H272.314H272.279H272.244H272.209H272.174H272.14H272.105H272.071H272.037H272.003H271.969H271.935H271.901H271.868H271.834H271.801H271.768H271.735H271.702H271.669H271.637H271.604H271.572H271.54H271.508H271.476H271.445H271.413H271.382H271.35H271.319H271.289H271.258H271.227H271.197H271.166H271.136H271.106H271.077H271.047H271.018H270.988H270.959H270.93H270.901H270.873H270.844H270.816H270.788H270.76H270.732H270.705H270.677H270.65H270.623H270.596H270.569H270.543H270.517H270.491H270.465H270.439H270.413H270.388H270.363H270.338H270.313H270.288H270.264H270.24H270.216H270.192H270.168H270.145H270.122H270.099H270.076H270.053H270.031H270.009H269.987H269.965H269.943H269.922H269.901H269.88H269.859H269.839H269.818H269.798H269.778H269.759H269.739H269.72H269.701H269.683H269.664H269.646H269.628H269.61H269.592H269.575H269.558H269.541H269.524H269.508H269.491H269.475H269.46H269.444H269.429H269.414H269.399H269.385H269.37H269.356H269.342H269.329H269.316H269.303H269.29H269.277H269.265H269.253H269.241H269.229H269.218H269.207H269.196H269.186H269.176H269.166H269.156H269.146H269.137H269.128H269.12H269.111H269.103H269.095H269.088H269.08H269.073H269.067H269.06H269.054H269.048H269.042H269.037H269.032H269.027H269.023H269.018H269.014H269.011H269.007H269.004H269.001H268.999H268.997H268.995H268.993H268.992H268.991H268.99H268.989C268.989 59.6286 268.989 59.6286 268.989 60.0762C268.989 60.1225 268.989 60.1735 268.989 60.2299V59.6286H268.388V60.2299V68.5822V69.1835H268.989H284.526H285.127V68.5822V60.2299Z" stroke="#1BBDE3" stroke-opacity="0.7" stroke-width="1.20255"/>
<path d="M437.737 1.10393C437.427 0.756698 437.047 0.478882 436.621 0.288649C436.196 0.098417 435.736 5.62687e-05 435.27 1.80313e-06H366.072C365.606 -0.000485202 365.146 0.0976844 364.72 0.288048C364.295 0.478412 363.915 0.756653 363.606 1.10446C363.296 1.45226 363.063 1.86175 362.923 2.30595C362.783 2.75015 362.738 3.21901 362.792 3.68165L375.422 112.68V144.698C375.422 145.573 375.77 146.413 376.39 147.033C377.009 147.652 377.849 148 378.725 148H422.618C423.494 148 424.333 147.652 424.953 147.033C425.572 146.413 425.92 145.573 425.92 144.698V112.68L438.55 3.69108C438.606 3.22684 438.562 2.75613 438.421 2.31011C438.281 1.86409 438.048 1.45296 437.737 1.10393ZM431.564 6.6047L430.843 12.815H370.499L369.778 6.6047H431.564ZM412.797 131.026C412.075 128.363 410.497 126.011 408.305 124.335C406.113 122.658 403.431 121.75 400.671 121.75C397.912 121.75 395.229 122.658 393.037 124.335C390.846 126.011 389.267 128.363 388.545 131.026H382.027V115.784H419.315V131.026H412.797ZM405.644 131.026H395.699C396.242 130.204 396.98 129.529 397.848 129.062C398.716 128.596 399.686 128.351 400.671 128.351C401.657 128.351 402.627 128.596 403.494 129.062C404.362 129.529 405.101 130.204 405.644 131.026ZM419.676 109.179H381.667L371.263 19.4197H430.079L419.676 109.179ZM382.027 141.386V137.631H419.315V141.386H382.027Z" fill="#1BBDE3" fill-opacity="0.2"/>
<path d="M414.87 47.7878L402.323 40.5434C401.821 40.2532 401.252 40.1004 400.672 40.1004C400.092 40.1004 399.523 40.2532 399.021 40.5434L386.474 47.7878C385.972 48.0775 385.555 48.4943 385.265 48.9961C384.975 49.4979 384.823 50.0672 384.823 50.6467V65.1355C384.823 65.715 384.975 66.2843 385.265 66.7861C385.555 67.2879 385.972 67.7046 386.474 67.9944L399.021 75.2388C399.523 75.5294 400.092 75.6824 400.672 75.6824C401.252 75.6824 401.821 75.5294 402.323 75.2388L414.87 67.9944C415.372 67.7046 415.789 67.2879 416.079 66.7861C416.369 66.2843 416.521 65.715 416.521 65.1355V50.6467C416.521 50.0672 416.369 49.4979 416.079 48.9961C415.789 48.4943 415.372 48.0775 414.87 47.7878ZM409.919 63.2277L400.672 68.5662L391.425 63.2277V52.5545L400.672 47.216L409.919 52.5545V63.2277Z" fill="#1BBDE3" fill-opacity="0.2"/>
<path d="M402.023 41.0641L402.022 41.0639C401.612 40.8266 401.146 40.7016 400.672 40.7016C400.198 40.7016 399.732 40.8266 399.322 41.0639L399.321 41.0641L386.774 48.3085C386.364 48.5455 386.023 48.8864 385.786 49.2968C385.549 49.7072 385.424 50.1727 385.424 50.6467L402.023 41.0641ZM402.023 41.0641L414.57 48.3085M402.023 41.0641L414.57 48.3085M386.474 67.9944L386.774 67.4737L399.321 74.7181L399.322 74.7185C399.732 74.956 400.198 75.0811 400.672 75.0811C401.146 75.0811 401.612 74.956 402.022 74.7185L402.023 74.7181L414.57 67.4737L414.87 67.9944L414.57 67.4737C414.98 67.2367 415.321 66.8958 415.558 66.4854C415.795 66.075 415.92 65.6094 415.92 65.1355L386.474 67.9944ZM386.474 67.9944L386.774 67.4737C386.364 67.2367 386.023 66.8958 385.786 66.4854C385.549 66.075 385.424 65.6094 385.424 65.1355C385.424 65.1354 385.424 65.1354 385.424 65.1353M386.474 67.9944L385.424 65.1353M414.57 48.3085C414.98 48.5455 415.321 48.8864 415.558 49.2968C415.795 49.7072 415.92 50.1727 415.92 50.6467C415.92 50.6467 415.92 50.6468 415.92 50.6469M414.57 48.3085L415.92 50.6469M385.424 65.1353V50.6469V65.1353ZM415.92 50.6469V65.1353V50.6469ZM366.071 0.601276H366.072H435.27C435.651 0.601321 436.028 0.681805 436.376 0.837458C436.723 0.993004 437.034 1.22012 437.288 1.50399C437.542 1.78943 437.733 2.12567 437.848 2.49043C437.963 2.85521 437.998 3.24017 437.953 3.61982L437.953 3.62187L425.323 112.611L425.319 112.645V112.68V144.698C425.319 145.414 425.034 146.101 424.528 146.608C424.021 147.114 423.334 147.399 422.618 147.399H378.725C378.008 147.399 377.321 147.114 376.815 146.608C376.308 146.101 376.024 145.414 376.024 144.698V112.68V112.645L376.02 112.611L363.39 3.61244L363.39 3.61182C363.345 3.23352 363.382 2.85013 363.496 2.48689C363.611 2.12359 363.801 1.78876 364.055 1.50441C364.308 1.22 364.619 0.992479 364.966 0.836816C365.314 0.681159 365.691 0.600878 366.071 0.601276ZM432.162 6.67403L432.239 6.00343H431.564H369.778H369.103L369.181 6.67403L369.902 12.8843L369.964 13.4163H370.499H430.843H431.379L431.441 12.8843L432.162 6.67403ZM412.217 131.183L412.337 131.627H412.797H419.315H419.917V131.026V115.784V115.183H419.315H382.027H381.426V115.784V131.026V131.627H382.027H388.545H389.005L389.125 131.183C389.813 128.647 391.316 126.409 393.403 124.812C395.49 123.216 398.044 122.351 400.671 122.351C403.299 122.351 405.853 123.216 407.94 124.812C410.026 126.409 411.53 128.647 412.217 131.183ZM405.644 131.627H406.761L406.145 130.695C405.547 129.789 404.734 129.047 403.779 128.533C402.824 128.019 401.756 127.75 400.671 127.75C399.587 127.75 398.519 128.019 397.563 128.533C396.608 129.047 395.795 129.789 395.197 130.695L394.581 131.627H395.699H405.644ZM419.676 109.781H420.211L420.273 109.249L430.676 19.4889L430.754 18.8184H430.079H371.263H370.588L370.666 19.4889L381.069 109.249L381.131 109.781H381.667H419.676ZM381.426 141.386V141.987H382.027H419.315H419.917V141.386V137.631V137.029H419.315H382.027H381.426V137.631V141.386ZM410.219 63.7484L410.52 63.5748V63.2277V52.5545V52.2073L410.219 52.0338L400.973 46.6953L400.672 46.5217L400.371 46.6953L391.125 52.0338L390.824 52.2073V52.5545V63.2277V63.5748L391.125 63.7484L400.371 69.0869L400.672 69.2605L400.973 69.0869L410.219 63.7484Z" stroke="#1BBDE3" stroke-opacity="0.7" stroke-width="1.20255"/>
<path d="M603.886 68.3635V58.8289H604.65C605.254 58.8289 605.834 58.5887 606.262 58.1611C606.69 57.7335 606.93 57.1535 606.93 56.5488C606.93 55.944 606.69 55.3641 606.262 54.9365C605.834 54.5089 605.254 54.2686 604.65 54.2686H603.886V46.9218C603.886 44.1014 602.135 41.6836 599.664 40.694C599.785 39.4557 599.94 37.7116 600.087 35.5771C601.069 21.3661 592.958 8.08879 579.906 2.53805C579.535 2.38027 579.329 2.30062 579.329 2.30062C577.825 1.7163 576.221 2.83356 576.221 4.42478C576.221 17.769 547.785 24.4662 531.866 24.4662C522.851 24.4662 518.054 29.3548 515.617 33.456C514.021 36.1426 513.232 38.8231 512.86 40.5079C510.116 41.3485 508.114 43.9056 508.114 46.9215V54.2683H507.351C506.746 54.2683 506.166 54.5086 505.738 54.9362C505.311 55.3638 505.071 55.9437 505.071 56.5485C505.071 57.1532 505.311 57.7332 505.738 58.1608C506.166 58.5884 506.746 58.8286 507.351 58.8286H508.114V68.3632C499.63 68.9302 492.9 76.0083 492.9 84.6332V129.546C492.9 138.54 500.217 145.857 509.211 145.857H602.789C611.783 145.857 619.1 138.54 619.1 129.546V84.6335C619.1 76.0086 612.37 68.9302 603.886 68.3635ZM519.538 35.7856C522.203 31.3008 526.351 29.0267 531.866 29.0267C547.423 29.0267 576.58 22.9497 580.368 7.80758C590.305 13.0947 596.328 23.8284 595.537 35.263C595.424 36.9156 595.287 38.5664 595.128 40.2152H517.643C518.011 38.952 518.603 37.3598 519.538 35.7856ZM556.381 54.2686H512.675V46.9218C512.675 46.3526 512.902 45.807 513.304 45.4046C513.706 45.0021 514.252 44.7758 514.821 44.7751H597.18C597.749 44.7758 598.294 45.0021 598.697 45.4046C599.099 45.807 599.326 46.3526 599.326 46.9218V54.2686H578.501C577.242 54.2686 576.221 55.2895 576.221 56.5488C576.221 57.808 577.242 58.8289 578.501 58.8289H599.326V68.3224H512.675V58.8289H556.382C556.986 58.8289 557.566 58.5886 557.994 58.1609C558.421 57.7333 558.662 57.1533 558.662 56.5486C558.662 55.9439 558.421 55.3639 557.994 54.9364C557.566 54.5088 556.986 54.2686 556.381 54.2686ZM614.54 129.546C614.54 136.025 609.268 141.297 602.789 141.297H509.212C502.732 141.297 497.461 136.025 497.461 129.546V84.6335C497.461 78.1543 502.732 72.8827 509.212 72.8827H602.789C609.268 72.8827 614.54 78.154 614.54 84.6335V129.546Z" fill="#1BBDE3" fill-opacity="0.2"/>
<path d="M592.919 84.1545H519.082C513.034 84.1545 508.114 89.0747 508.114 95.1225V119.057C508.114 125.105 513.034 130.025 519.082 130.025H592.918C598.966 130.025 603.886 125.105 603.886 119.057V95.1225C603.886 89.0747 598.966 84.1545 592.919 84.1545ZM599.326 119.057C599.326 122.591 596.452 125.465 592.918 125.465H519.082C515.549 125.465 512.674 122.591 512.674 119.057V95.1225C512.674 91.5892 515.549 88.7147 519.082 88.7147H592.918C596.452 88.7147 599.326 91.5892 599.326 95.1225V119.057Z" fill="#1BBDE3" fill-opacity="0.2"/>
<path d="M603.285 68.3635V68.9259L603.846 68.9634C612.017 69.5092 618.499 76.3277 618.498 84.6335V129.546C618.498 138.208 611.451 145.255 602.789 145.255H509.211C500.549 145.255 493.502 138.208 493.502 129.546V84.6332C493.502 76.3274 499.984 69.5092 508.154 68.9631L508.715 68.9256V68.3632V58.8286V58.2273H508.114H507.351C506.905 58.2273 506.478 58.0505 506.164 57.7356C505.849 57.4207 505.672 56.9937 505.672 56.5485C505.672 56.1032 505.849 55.6762 506.164 55.3613L505.738 54.9362L506.164 55.3613C506.478 55.0465 506.905 54.8696 507.351 54.8696H508.114H508.715V54.2683V46.9215C508.715 44.1779 510.537 41.8484 513.036 41.0828L513.371 40.9801L513.447 40.6377C513.811 38.9917 514.581 36.3772 516.134 33.7631L516.134 33.7631C518.495 29.7892 523.12 25.0675 531.866 25.0675C539.89 25.0675 551.049 23.3826 560.22 20.014C564.804 18.33 568.93 16.2114 571.921 13.6419C574.914 11.07 576.822 7.997 576.822 4.42478C576.822 3.25313 578.005 2.43104 579.112 2.86109L579.112 2.86113L579.112 2.86117L579.112 2.8612L579.113 2.8617L579.119 2.86409L579.146 2.87445C579.169 2.88382 579.205 2.89813 579.252 2.91735C579.347 2.95578 579.488 3.01386 579.671 3.09137C592.486 8.54123 600.451 21.5789 599.487 35.5356C599.34 37.6638 599.186 39.4022 599.065 40.6355L599.022 41.0845L599.44 41.2522C601.692 42.1539 603.285 44.3565 603.285 46.9218V54.2686V54.8699H603.886H604.65C605.095 54.8699 605.522 55.0468 605.837 55.3616C606.152 55.6765 606.329 56.1035 606.329 56.5488C606.329 56.994 606.152 57.421 605.837 57.7359C605.522 58.0508 605.095 58.2276 604.65 58.2276H603.886H603.285V58.8289V68.3635ZM519.021 35.4785L519.021 35.4785C518.053 37.1079 517.443 38.7501 517.066 40.0472L516.842 40.8164H517.643H595.128H595.674L595.726 40.273C595.886 38.6189 596.023 36.9625 596.137 35.3045C596.944 23.6329 590.797 12.6753 580.65 7.27676L579.971 6.91546L579.784 7.66167C578.881 11.2741 576.454 14.3875 573.012 17.0346C569.571 19.6818 565.148 21.8349 560.331 23.5282C550.694 26.9155 539.584 28.4255 531.866 28.4255C526.153 28.4255 521.802 30.7989 519.021 35.4785ZM556.381 54.8699L556.381 54.8699C556.827 54.8699 557.254 55.0467 557.568 55.3616C557.883 55.6764 558.06 56.1035 558.06 56.5487C558.06 56.9939 557.883 57.4209 557.569 57.7358C557.254 58.0507 556.827 58.2276 556.382 58.2276H512.675H512.073V58.8289V68.3224V68.9237H512.675H599.326H599.928V68.3224V58.8289V58.2276H599.326H578.501C577.574 58.2276 576.822 57.476 576.822 56.5488C576.822 55.6216 577.574 54.8699 578.501 54.8699H599.326H599.928V54.2686V46.9218V46.9211C599.927 46.1927 599.637 45.4944 599.122 44.9794C598.607 44.4644 597.909 44.1747 597.18 44.1738H597.18H514.821L514.821 44.1738C514.092 44.1747 513.394 44.4644 512.879 44.9794C512.364 45.4944 512.074 46.1927 512.073 46.9211V46.9218V54.2686V54.8699H512.675H556.381ZM602.789 141.898C609.6 141.898 615.141 136.358 615.141 129.546V84.6335C615.141 77.822 609.6 72.2814 602.789 72.2814H509.212C502.4 72.2814 496.86 77.8223 496.86 84.6335V129.546C496.86 136.358 502.4 141.898 509.212 141.898H602.789ZM519.082 84.7557H592.919C598.634 84.7557 603.285 89.4068 603.285 95.1225V119.057C603.285 124.773 598.634 129.424 592.918 129.424H519.082C513.366 129.424 508.715 124.773 508.715 119.057V95.1225C508.715 89.4068 513.366 84.7557 519.082 84.7557ZM592.918 126.066C596.784 126.066 599.927 122.923 599.927 119.057V95.1225C599.927 91.2571 596.784 88.1135 592.918 88.1135H519.082C515.217 88.1135 512.073 91.2571 512.073 95.1225V119.057C512.073 122.923 515.217 126.066 519.082 126.066H592.918Z" stroke="#1BBDE3" stroke-opacity="0.7" stroke-width="1.20255"/>
<path d="M676.112 19.2405C676.112 19.2405 683.328 115.902 683.451 116.324V140.334C683.453 142.044 684.133 143.683 685.342 144.892C686.551 146.101 688.19 146.781 689.9 146.783H723.068C724.778 146.781 726.417 146.101 727.626 144.892C728.835 143.683 729.515 142.044 729.517 140.334V116.324C729.641 115.902 736.815 19.5462 736.815 19.5462C736.984 18.7402 739.346 9.22825 739.346 9.22825C739.831 7.29214 739.403 5.27266 738.173 3.69598C736.943 2.11929 735.09 1.217 733.089 1.217H679.879C678.898 1.21428 677.93 1.43632 677.049 1.86605C676.167 2.29579 675.396 2.92178 674.795 3.69598C674.19 4.46661 673.769 5.36566 673.566 6.32405C673.363 7.28244 673.382 8.27466 673.622 9.22453C673.622 9.22453 675.984 18.7402 676.112 19.2405ZM712.933 141.254H700.035V136.649C700.035 136.649 700.448 135.728 700.955 135.728H712.011C712.518 135.728 712.931 136.649 712.931 136.649L712.933 141.254ZM723.989 140.334C723.988 140.578 723.891 140.812 723.718 140.984C723.546 141.157 723.312 141.254 723.068 141.254H718.277C718.38 140.964 718.462 136.649 718.462 136.649C718.46 134.939 717.78 133.299 716.571 132.09C715.362 130.881 713.722 130.201 712.013 130.199H700.957C699.247 130.201 697.608 130.881 696.399 132.09C695.19 133.299 694.51 134.939 694.508 136.649C694.508 136.649 694.591 140.964 694.695 141.254H689.902C689.658 141.254 689.424 141.157 689.251 140.984C689.079 140.812 688.982 140.578 688.981 140.334V120.987H723.989V140.334ZM724.25 114.603C724.232 114.835 724.128 115.052 723.958 115.21C723.787 115.369 723.564 115.458 723.331 115.459H689.637C689.404 115.458 689.181 115.369 689.01 115.21C688.84 115.052 688.736 114.835 688.718 114.603C688.718 114.603 681.603 18.5957 681.418 17.8009H731.548C731.362 18.5957 724.25 114.603 724.25 114.603ZM679.152 7.09758C679.238 6.98719 679.349 6.89805 679.474 6.83702C679.6 6.77598 679.739 6.74471 679.879 6.74559H733.087C733.228 6.74396 733.367 6.77491 733.494 6.83601C733.621 6.8971 733.731 6.98668 733.818 7.09775C733.904 7.20882 733.963 7.33835 733.991 7.47622C734.019 7.61408 734.015 7.75653 733.979 7.89242L732.895 12.2723H680.071L678.986 7.88873C678.95 7.75294 678.947 7.61082 678.976 7.47356C679.005 7.3363 679.065 7.2076 679.152 7.09758Z" fill="#1BBDE3" fill-opacity="0.2"/>
<path d="M703.496 43.6262C699.375 49.4715 694.469 57.392 694.488 61.9127C694.51 67.2319 698.539 71.9212 703.866 72.8179C704.894 72.9902 705.924 73.081 706.929 73.081C714.201 73.081 719.316 68.5492 719.372 62.0683C719.403 58.4629 716.372 52.2618 710.364 43.6429C708.794 41.3881 705.065 41.3881 703.496 43.6262ZM706.927 67.5506C706.208 67.5489 705.491 67.4875 704.783 67.3671C702.074 66.9095 700.025 64.5529 700.014 61.8905C700.009 60.173 702.15 55.3911 706.918 48.3914C711.711 55.4948 713.858 60.3138 713.843 62.0165C713.81 66.0962 710.249 67.5506 706.927 67.5506Z" fill="#1BBDE3" fill-opacity="0.2"/>
<path d="M737.412 19.632L737.41 19.6606L737.394 19.8672L737.334 20.673L737.106 23.7319C736.91 26.3675 736.629 30.133 736.292 34.653C735.617 43.693 734.717 55.7507 733.812 67.8216C732.908 79.8925 731.999 91.9767 731.309 101.07C730.964 105.616 730.674 109.415 730.466 112.091C730.362 113.429 730.278 114.486 730.219 115.216C730.189 115.581 730.165 115.865 730.148 116.062C730.139 116.16 730.132 116.239 730.126 116.295C730.124 116.322 730.121 116.347 730.118 116.368V140.334V140.334C730.116 142.203 729.373 143.995 728.051 145.317C726.73 146.639 724.938 147.382 723.068 147.384H723.068H689.9H689.899C688.03 147.382 686.238 146.639 684.917 145.317C683.595 143.995 682.852 142.203 682.849 140.334V140.334V116.367C682.847 116.347 682.844 116.322 682.842 116.295C682.836 116.238 682.829 116.16 682.82 116.061C682.803 115.864 682.779 115.579 682.749 115.213C682.689 114.481 682.605 113.42 682.501 112.078C682.292 109.394 682 105.583 681.653 101.022C680.959 91.9004 680.046 79.7779 679.136 67.6688C678.226 55.5597 677.32 43.4638 676.642 34.3952C676.303 29.8609 676.02 26.0834 675.823 23.4395L675.593 20.3709L675.533 19.5625L675.518 19.3553L675.516 19.3374C675.405 18.8952 674.812 16.5117 674.235 14.1899L673.409 10.8641L673.14 9.77927L673.065 9.4764L673.045 9.39672L673.04 9.3763L673.039 9.37182L673.039 9.37114L673.038 9.36984L673.038 9.36951C673.038 9.36944 673.038 9.3694 673.622 9.22453C673.382 8.27466 673.363 7.28244 673.566 6.32405C673.769 5.36566 674.19 4.46661 674.795 3.69598L737.412 19.632ZM737.412 19.632C737.52 19.1382 738.13 16.6487 738.728 14.229C739.033 12.9899 739.334 11.7759 739.558 10.8717L739.828 9.78333L739.903 9.48013L739.923 9.40045L739.928 9.38006L739.929 9.3749L739.929 9.37447M737.412 19.632L739.929 9.37447M679.879 0.61573C678.807 0.612881 677.749 0.855727 676.785 1.3256C675.822 1.79539 674.979 2.47964 674.321 3.32586L733.089 1.217C735.09 1.217 736.943 2.11929 738.173 3.69598C739.403 5.27266 739.831 7.29214 739.346 9.22825C739.93 9.37317 739.93 9.37321 739.93 9.37328L739.929 9.37341M679.879 0.61573C679.88 0.615731 679.88 0.615732 679.88 0.615733L679.879 1.217V0.61573H679.879ZM679.879 0.61573H733.089C735.275 0.61573 737.303 1.603 738.647 3.3261C739.991 5.04822 740.46 7.25759 739.929 9.37341M739.929 9.37341L739.929 9.3736L739.929 9.37447M739.929 9.37341C739.929 9.37377 739.929 9.37412 739.929 9.37447M694.021 140.442C694.025 140.515 694.029 140.586 694.033 140.653H689.903C689.818 140.653 689.737 140.619 689.676 140.559C689.617 140.499 689.583 140.418 689.582 140.333C689.582 140.333 689.582 140.333 689.582 140.332L689.582 121.589H723.387V140.332C723.387 140.417 723.353 140.499 723.293 140.559C723.233 140.619 723.152 140.653 723.067 140.653H718.939C718.942 140.586 718.946 140.515 718.95 140.442C718.972 139.991 718.992 139.419 719.009 138.86C719.026 138.301 719.039 137.751 719.049 137.341C719.051 137.242 719.053 137.15 719.055 137.069C719.056 136.983 719.058 136.908 719.059 136.847L719.062 136.709L719.063 136.673L719.063 136.663L719.063 136.661L719.063 136.66L719.063 136.66L718.462 136.649L719.063 136.66L719.063 136.648C719.061 134.779 718.318 132.987 716.996 131.665C715.674 130.343 713.882 129.6 712.013 129.598H712.013H700.957H700.957C699.087 129.6 697.295 130.343 695.974 131.665C694.652 132.987 693.909 134.779 693.906 136.648L693.907 136.66L693.907 136.66L693.907 136.661L693.907 136.663L693.907 136.673L693.908 136.709L693.91 136.847C693.913 136.966 693.917 137.136 693.921 137.341C693.931 137.751 693.945 138.301 693.961 138.861C693.978 139.419 693.999 139.991 694.021 140.442ZM689.42 114.77C689.36 114.715 689.324 114.638 689.318 114.557L689.317 114.554L689.316 114.541L689.312 114.489L689.297 114.283L689.238 113.48L689.012 110.431C688.817 107.805 688.538 104.051 688.203 99.5447C687.533 90.5316 686.638 78.5057 685.737 66.4551C684.836 54.4044 683.93 42.3287 683.237 33.2159C682.89 28.6595 682.597 24.8435 682.385 22.1414C682.278 20.7905 682.192 19.7173 682.13 18.969C682.112 18.753 682.096 18.5636 682.082 18.4021H730.884C730.87 18.5636 730.854 18.753 730.836 18.969C730.774 19.7173 730.688 20.7906 730.582 22.1414C730.369 24.8435 730.076 28.6596 729.73 33.2159C729.037 42.3287 728.13 54.4044 727.23 66.4551C726.329 78.5058 725.434 90.5316 724.764 99.5447C724.43 104.051 724.151 107.805 723.956 110.431L723.73 113.48L723.671 114.283L723.655 114.489L723.651 114.541L723.651 114.554L723.65 114.557C723.644 114.639 723.607 114.715 723.548 114.77C723.488 114.826 723.41 114.857 723.329 114.857C723.329 114.857 723.328 114.857 723.328 114.857H689.64C689.64 114.857 689.639 114.857 689.639 114.857C689.558 114.857 689.48 114.826 689.42 114.77ZM679.624 7.4706L679.624 7.47061L679.627 7.46712C679.656 7.42941 679.694 7.39895 679.737 7.37809C679.78 7.35725 679.827 7.34655 679.875 7.34685V7.34686H679.879L733.087 7.3469L733.094 7.34682C733.142 7.34627 733.19 7.35681 733.233 7.3776C733.276 7.39844 733.314 7.42895 733.343 7.46667L733.818 7.09775L733.343 7.46668C733.372 7.50449 733.393 7.54858 733.402 7.59552C733.412 7.64229 733.41 7.69078 733.398 7.73718L733.398 7.73715L733.395 7.74799L732.424 11.671H680.542L679.569 7.74417L679.569 7.74417L679.568 7.73778C679.556 7.69209 679.555 7.64409 679.564 7.59757C679.574 7.55115 679.595 7.5077 679.624 7.4706ZM703.766 73.4109L703.767 73.4109L719.372 62.0683L719.973 62.0736C719.973 62.0735 719.973 62.0735 719.973 62.0735C719.99 60.1264 719.188 57.5709 717.673 54.4716C716.149 51.3552 713.871 47.6223 710.857 43.2994C709.941 41.9827 708.415 41.3507 706.931 41.3484C705.447 41.3461 703.921 41.9728 703.003 43.2806C700.937 46.2127 698.664 49.677 696.908 52.9842C695.169 56.2611 693.876 59.49 693.886 61.9151C693.91 67.5333 698.157 72.4666 703.766 73.4109ZM704.884 66.7744L704.883 66.7743C702.45 66.3632 700.625 64.2451 700.616 61.8881C700.615 61.5609 700.721 61.0168 700.989 60.2363C701.253 59.4686 701.657 58.5158 702.215 57.3884C703.25 55.2958 704.8 52.6281 706.915 49.4691C709.045 52.6782 710.604 55.3808 711.644 57.4946C712.203 58.6324 712.609 59.5918 712.872 60.3626C713.14 61.1471 713.245 61.6895 713.242 62.0112V62.0115C713.227 63.8455 712.434 65.0465 711.285 65.8132C710.106 66.5996 708.515 66.9491 706.928 66.9493C706.243 66.9477 705.559 66.8892 704.884 66.7744ZM712.332 140.653H700.636V136.791C700.636 136.791 700.636 136.791 700.636 136.791C700.674 136.719 700.728 136.628 700.792 136.541C700.857 136.45 700.919 136.384 700.968 136.345C700.977 136.338 700.985 136.333 700.99 136.329H711.976C711.981 136.333 711.989 136.338 711.998 136.345C712.047 136.384 712.109 136.45 712.174 136.541C712.238 136.628 712.292 136.719 712.33 136.791C712.33 136.791 712.33 136.791 712.33 136.791L712.332 140.653Z" stroke="#1BBDE3" stroke-opacity="0.7" stroke-width="1.20255"/>
<path d="M846.484 6.65845H811.914C810.088 6.66073 808.338 7.38702 807.047 8.67802C805.756 9.96901 805.03 11.7193 805.028 13.5451V16.3366C805.03 18.1623 805.756 19.9127 807.047 21.2036C808.338 22.4946 810.088 23.2209 811.914 23.2232H816.911V33.6662C814.629 33.6961 812.45 34.623 810.846 36.2464C809.241 37.8699 808.34 40.0594 808.338 42.3418V48.4305H806.609C803.23 48.4335 799.99 49.7778 797.601 52.168C795.212 54.5582 793.87 57.7989 793.869 61.1781V128.604C793.872 131.981 795.216 135.219 797.604 137.607C799.992 139.995 803.229 141.338 806.606 141.342H843.789C847.166 141.338 850.404 139.995 852.792 137.607C855.18 135.219 856.523 131.981 856.527 128.604V61.1781C856.523 57.8011 855.18 54.5635 852.792 52.1755C850.404 49.7876 847.166 48.4444 843.789 48.4406H842.061V42.3476C842.059 40.063 841.158 37.8708 839.552 36.246C837.946 34.6211 835.765 33.6943 833.48 33.6662V23.2232H846.12C846.215 23.8147 846.518 24.3528 846.974 24.7413C847.43 25.1298 848.01 25.3433 848.609 25.3435H860.132C860.801 25.3435 861.442 25.0779 861.914 24.6052C862.387 24.1325 862.653 23.4913 862.653 22.8228C862.648 18.5364 860.943 14.4269 857.912 11.3964C854.88 8.36587 850.771 6.66188 846.484 6.65845ZM851.485 61.1781V128.604C851.483 130.644 850.671 132.601 849.229 134.043C847.786 135.486 845.83 136.298 843.789 136.3H806.606C804.566 136.298 802.61 135.486 801.167 134.043C799.724 132.601 798.912 130.644 798.91 128.604V61.1781C798.912 59.1377 799.724 57.1815 801.167 55.7387C802.61 54.2959 804.566 53.4843 806.606 53.482H843.789C845.83 53.4843 847.786 54.2959 849.229 55.7387C850.671 57.1815 851.483 59.1377 851.485 61.1781ZM837.012 42.3476V48.4362H813.389V42.3476C813.391 41.3837 813.774 40.4596 814.455 39.7775C815.136 39.0954 816.059 38.7107 817.023 38.7077H833.371C834.336 38.7088 835.261 39.0926 835.944 39.775C836.626 40.4573 837.01 41.3825 837.012 42.3476ZM828.439 33.6662H821.957V23.2232H828.439V33.6662ZM850.379 20.3021C849.959 19.6525 849.383 19.1183 848.704 18.748C848.025 18.3777 847.263 18.183 846.49 18.1818H811.92C811.431 18.181 810.962 17.9864 810.616 17.6405C810.27 17.2946 810.076 16.8257 810.075 16.3366V13.5451C810.076 13.0559 810.27 12.587 810.616 12.2412C810.962 11.8953 811.431 11.7007 811.92 11.6999H846.49C849.001 11.7032 851.437 12.5546 853.404 14.1159C855.371 15.6773 856.752 17.8571 857.325 20.3021H850.379Z" fill="#1BBDE3" fill-opacity="0.2"/>
<path d="M806.164 74.1808V115.593C806.164 116.261 806.43 116.902 806.903 117.375C807.375 117.848 808.016 118.113 808.685 118.113H841.712C842.381 118.113 843.022 117.848 843.495 117.375C843.967 116.902 844.233 116.261 844.233 115.593V74.1808C844.233 73.5123 843.967 72.8712 843.495 72.3984C843.022 71.9257 842.381 71.6601 841.712 71.6601H808.685C808.016 71.6601 807.375 71.9257 806.903 72.3984C806.43 72.8712 806.164 73.5123 806.164 74.1808ZM811.206 76.7016H839.192V113.072H811.206V76.7016Z" fill="#1BBDE3" fill-opacity="0.2"/>
<path d="M856.538 19.7008C855.91 17.6886 854.69 15.9048 853.03 14.5868C851.17 13.1098 848.865 12.3044 846.489 12.3012C846.489 12.3012 846.489 12.3012 846.489 12.3012L811.92 12.3012M856.538 19.7008L811.92 11.6999M856.538 19.7008H850.693C850.241 19.0906 849.661 18.5849 848.992 18.2201C848.224 17.8018 847.365 17.5819 846.491 17.5805H846.49L811.921 17.5805L811.92 18.1818V17.5805H811.92C811.591 17.5798 811.274 17.4485 811.041 17.2153C810.808 16.982 810.677 16.6656 810.676 16.3357M856.538 19.7008L810.676 16.3357M811.92 12.3012H811.92V11.6999M811.92 12.3012C811.921 12.3012 811.921 12.3012 811.921 12.3012L811.92 11.6999M811.92 12.3012C811.591 12.3018 811.274 12.4331 811.041 12.6663C810.808 12.8997 810.677 13.216 810.676 13.546M811.92 11.6999C811.431 11.7007 810.962 11.8953 810.616 12.2412C810.27 12.587 810.076 13.0559 810.075 13.5451M810.676 13.546V13.5451H810.075M810.676 13.546V16.3357M810.676 13.546L810.075 13.5451M810.075 13.5451L810.676 16.3357M810.676 16.3357L810.075 16.3366H810.676V16.3357ZM836.411 47.835L836.411 42.3486L836.411 42.3476M836.411 47.835L833.371 38.7077C834.336 38.7088 835.261 39.0926 835.944 39.775C836.626 40.4573 837.01 41.3825 837.012 42.3476H836.411M836.411 47.835H813.99V42.3486C813.992 41.5436 814.312 40.772 814.88 40.2023C815.449 39.633 816.22 39.3118 817.024 39.309C817.024 39.309 817.025 39.309 817.025 39.309H833.37M836.411 47.835L833.37 39.309M836.411 42.3476C836.409 41.542 836.088 40.7698 835.519 40.2002C834.949 39.6306 834.176 39.3101 833.371 39.309C833.37 39.309 833.37 39.309 833.37 39.309M836.411 42.3476L833.37 39.309M846.485 6.05717H846.484L811.914 6.05717L811.913 6.05717C809.928 6.05966 808.026 6.84928 806.622 8.25285C805.218 9.65643 804.429 11.5594 804.426 13.5443V13.5451V16.3366V16.3373C804.429 18.3223 805.218 20.2252 806.622 21.6288C808.026 23.0324 809.928 23.822 811.913 23.8245H811.914H816.31V33.0918C814.088 33.2632 811.994 34.2293 810.418 35.8238C808.703 37.5596 807.739 39.9007 807.736 42.3411V42.3418V47.8292L806.609 47.8292L806.609 47.8292C803.07 47.8324 799.677 49.24 797.176 51.7429C794.674 54.2458 793.269 57.6393 793.267 61.1779V61.1781L793.267 128.604L793.267 128.605C793.271 132.141 794.678 135.531 797.178 138.032C799.679 140.532 803.069 141.939 806.606 141.943H806.606H843.789H843.79C847.326 141.939 850.716 140.532 853.217 138.032C855.717 135.531 857.124 132.141 857.128 128.605V128.604V61.1781L857.128 61.1775C857.124 57.6412 855.717 54.2509 853.217 51.7504C850.716 49.2498 847.326 47.8433 843.79 47.8393H843.789H842.662V42.3476L842.662 42.3473C842.66 39.9045 841.697 37.5606 839.98 35.8233C838.402 34.2273 836.306 33.2612 834.081 33.0913V23.8245H845.652C845.832 24.3554 846.153 24.8314 846.584 25.199C847.149 25.6802 847.867 25.9445 848.609 25.9448H848.609H860.132C860.96 25.9448 861.754 25.6159 862.34 25.0304C862.925 24.4449 863.254 23.6508 863.254 22.8228V22.8221C863.249 18.3765 861.481 14.1143 858.337 10.9712C855.193 7.82804 850.93 6.06073 846.485 6.05717ZM850.884 61.1788V128.603C850.882 130.484 850.134 132.288 848.803 133.618C847.473 134.948 845.67 135.697 843.788 135.699H806.607C804.726 135.697 802.922 134.948 801.592 133.618C800.262 132.288 799.514 130.485 799.511 128.604C799.511 128.604 799.511 128.603 799.511 128.603V61.1788C799.511 61.1787 799.511 61.1785 799.511 61.1784C799.514 59.2973 800.262 57.494 801.592 56.1639C802.922 54.8336 804.726 54.0854 806.607 54.0833H843.788C845.67 54.0854 847.473 54.8336 848.803 56.1639C850.134 57.4941 850.882 59.2976 850.884 61.1788ZM827.837 33.065H822.558V23.8245H827.837V33.065ZM805.563 74.1808V115.593C805.563 116.421 805.892 117.215 806.477 117.8C807.063 118.386 807.857 118.715 808.685 118.715H841.712C842.54 118.715 843.334 118.386 843.92 117.8C844.505 117.215 844.834 116.421 844.834 115.593V74.1808C844.834 73.3528 844.505 72.5587 843.92 71.9733C843.334 71.3878 842.54 71.0588 841.712 71.0588H808.685C807.857 71.0588 807.063 71.3878 806.477 71.9733C805.892 72.5587 805.563 73.3528 805.563 74.1808ZM811.807 77.3028H838.59V112.471H811.807V77.3028Z" stroke="#1BBDE3" stroke-opacity="0.7" stroke-width="1.20255"/>
<path d="M973.854 8.24245C966.124 3.65099 957.301 1.22432 948.311 1.217C939.32 1.20967 930.494 3.62196 922.756 8.20082C920.203 9.73801 918.318 12.1752 917.471 15.0327C916.625 17.8902 916.878 20.961 918.182 23.6409L935.249 58.3122C935.066 58.484 935.303 133.71 935.212 133.902C935.74 151.039 960.602 151.114 961.154 133.902V59.1969C961.263 59.0679 961.359 58.9285 961.44 58.7806L978.649 23.8101C979.987 21.0927 980.235 17.9671 979.344 15.0727C978.452 12.1783 976.488 9.73652 973.854 8.24245ZM955.952 60.2299V68.5822H940.416V60.2299C940.416 60.2299 953.533 60.2299 955.952 60.2299ZM948.183 141.698C946.12 141.692 944.144 140.867 942.688 139.406C941.232 137.944 940.415 135.965 940.416 133.902V73.7862H955.95V133.902C955.951 135.965 955.134 137.944 953.678 139.406C952.222 140.867 950.246 141.692 948.183 141.698ZM973.979 21.5125L957.485 55.026H955.945L957.909 49.7882C958.151 49.1419 958.127 48.4259 957.841 47.7976C957.555 47.1694 957.032 46.6804 956.386 46.4381C955.739 46.1959 955.023 46.2203 954.395 46.506C953.767 46.7918 953.278 47.3153 953.036 47.9616L951.058 53.2332V48.0527C951.058 47.3626 950.784 46.7007 950.296 46.2128C949.808 45.7248 949.146 45.4507 948.456 45.4507C947.766 45.4507 947.104 45.7248 946.616 46.2128C946.128 46.7007 945.854 47.3626 945.854 48.0527V53.4544L943.799 47.9642C943.556 47.3179 943.067 46.7944 942.439 46.5087C941.811 46.2229 941.095 46.1985 940.449 46.4407C939.802 46.683 939.279 47.172 938.993 47.8002C938.707 48.4285 938.683 49.1445 938.925 49.7908L940.89 55.0312H939.432L922.853 21.3486C922.12 19.8441 921.976 18.1198 922.45 16.5148C922.925 14.9098 923.983 13.5405 925.416 12.6762C932.189 8.66135 939.901 6.50269 947.775 6.41772C955.648 6.33276 963.405 8.32449 970.263 12.1922C971.141 12.5337 971.939 13.0522 972.607 13.7153C973.276 14.3785 973.801 15.1722 974.149 16.0469C974.498 16.9217 974.662 17.8588 974.633 18.8C974.604 19.7412 974.381 20.6663 973.979 21.5177V21.5125Z" fill="#1BBDE3" fill-opacity="0.2"/>
<path d="M973.854 8.24245C966.124 3.65099 957.301 1.22432 948.311 1.217C939.32 1.20967 930.494 3.62196 922.756 8.20082C920.203 9.73801 918.318 12.1752 917.471 15.0327C916.625 17.8902 916.878 20.961 918.182 23.6409L935.249 58.3122C935.066 58.484 935.303 133.71 935.212 133.902C935.74 151.039 960.602 151.114 961.154 133.902V59.1969C961.263 59.0679 961.359 58.9285 961.44 58.7806L978.649 23.8101C979.987 21.0927 980.235 17.9671 979.344 15.0727C978.452 12.1783 976.488 9.73652 973.854 8.24245ZM955.952 60.2299V68.5822H940.416V60.2299C940.416 60.2299 953.533 60.2299 955.952 60.2299ZM948.183 141.698C946.12 141.692 944.144 140.867 942.688 139.406C941.232 137.944 940.415 135.965 940.416 133.902V73.7862H955.95V133.902C955.951 135.965 955.134 137.944 953.678 139.406C952.222 140.867 950.246 141.692 948.183 141.698ZM973.979 21.5125L957.485 55.026H955.945L957.909 49.7882C958.151 49.1419 958.127 48.4259 957.841 47.7976C957.555 47.1694 957.032 46.6804 956.386 46.4381C955.739 46.1959 955.023 46.2203 954.395 46.506C953.767 46.7918 953.278 47.3153 953.036 47.9616L951.058 53.2332V48.0527C951.058 47.3626 950.784 46.7007 950.296 46.2128C949.808 45.7248 949.146 45.4507 948.456 45.4507C947.766 45.4507 947.104 45.7248 946.616 46.2128C946.128 46.7007 945.854 47.3626 945.854 48.0527V53.4544L943.799 47.9642C943.556 47.3179 943.067 46.7944 942.439 46.5087C941.811 46.2229 941.095 46.1985 940.449 46.4407C939.802 46.683 939.279 47.172 938.993 47.8002C938.707 48.4285 938.683 49.1445 938.925 49.7908L940.89 55.0312H939.432L922.853 21.3486C922.12 19.8441 921.976 18.1198 922.45 16.5148C922.925 14.9098 923.983 13.5405 925.416 12.6762C932.189 8.66135 939.901 6.50269 947.775 6.41772C955.648 6.33276 963.405 8.32449 970.263 12.1922C971.141 12.5337 971.939 13.0522 972.607 13.7153C973.276 14.3785 973.801 15.1722 974.149 16.0469C974.498 16.9217 974.662 17.8588 974.633 18.8C974.604 19.7412 974.381 20.6663 973.979 21.5177V21.5125Z" fill="#1BBDE3" fill-opacity="0.2"/>
<path d="M939.815 133.902C939.813 136.124 940.693 138.256 942.262 139.83C943.83 141.404 945.959 142.292 948.181 142.299L948.185 142.299C950.407 142.292 952.536 141.404 954.104 139.83C955.673 138.256 956.553 136.124 956.551 133.902V73.7862V73.1849H955.95H940.416H939.815V73.7862V133.902ZM939.815 133.902L940.416 133.902H939.815V133.902ZM974.502 21.77L974.518 21.778L958.025 55.2915L957.859 55.6272H957.485H955.945H955.077L955.382 54.8148L957.346 49.5772C957.532 49.0802 957.514 48.5296 957.294 48.0465C957.074 47.5634 956.672 47.1874 956.175 47.0012C955.678 46.8149 955.127 46.8337 954.644 47.0534C954.161 47.2731 953.785 47.6757 953.599 48.1726L953.599 48.1728L951.621 53.4444L950.457 53.2332V48.0527C950.457 47.5221 950.246 47.0132 949.871 46.638C949.496 46.2627 948.987 46.052 948.456 46.052C947.926 46.052 947.417 46.2628 947.041 46.638C946.666 47.0131 946.455 47.522 946.455 48.0527V53.4544L945.291 53.6652L943.236 48.1752C943.236 48.1752 943.236 48.1751 943.235 48.175C943.049 47.6782 942.673 47.2756 942.19 47.056C941.707 46.8363 941.157 46.8175 940.66 47.0038C940.163 47.19 939.76 47.5661 939.54 48.0491C939.321 48.5322 939.302 49.0828 939.488 49.5797L974.502 21.77ZM974.502 21.77L974.523 21.7746C974.96 20.8486 975.202 19.8424 975.234 18.8187C975.266 17.795 975.087 16.7758 974.708 15.8244C974.329 14.873 973.758 14.0097 973.031 13.2885L972.607 13.7153L973.031 13.2885C972.314 12.5774 971.46 12.0194 970.522 11.6479C963.58 7.74176 955.733 5.73053 947.768 5.81648C939.789 5.90259 931.973 8.09023 925.109 12.159L925.109 12.159L925.105 12.1613C923.543 13.1032 922.391 14.5954 921.874 16.3444C921.357 18.0934 921.513 19.9725 922.312 21.612L922.313 21.6141L938.893 55.2967L939.058 55.6324H939.432H940.89H941.757L941.453 54.8201L939.488 49.5798L974.502 21.77ZM973.547 8.7594L973.547 8.75951L973.557 8.76546C976.059 10.184 977.923 12.502 978.769 15.2496C979.615 17.9975 979.38 20.9648 978.11 23.5446L978.649 23.8101L978.11 23.5446L960.907 58.5018C960.846 58.6107 960.775 58.7136 960.694 58.8092L960.552 58.9771V59.1969V133.893C960.018 150.284 936.354 150.263 935.814 133.921C935.816 133.902 935.816 133.879 935.817 133.858C935.819 133.814 935.82 133.753 935.821 133.678C935.823 133.527 935.825 133.308 935.827 133.027C935.83 132.464 935.832 131.645 935.834 130.607C935.836 128.53 935.835 125.575 935.832 122.034C935.828 117.377 935.819 111.706 935.811 105.688C935.806 102.554 935.802 99.3265 935.797 96.0986C935.785 86.6726 935.775 77.2478 935.78 70.169C935.782 66.6294 935.789 63.6772 935.8 61.6049C935.805 60.5684 935.812 59.7538 935.82 59.1962C935.824 58.9323 935.828 58.7289 935.833 58.5877L935.984 58.4451L935.788 58.0467L918.723 23.3779C918.723 23.3775 918.722 23.377 918.722 23.3766C917.485 20.8321 917.244 17.9165 918.048 15.2035C918.851 12.4907 920.641 10.1769 923.065 8.71711C930.708 4.19396 939.429 1.81103 948.31 1.81827C957.193 1.82551 965.91 4.22305 973.547 8.7594ZM956.554 60.2299V59.6286H955.952H955.938H955.924H955.909H955.894H955.878H955.863H955.847H955.831H955.815H955.799H955.782H955.765H955.748H955.73H955.713H955.695H955.677H955.659H955.64H955.621H955.602H955.583H955.564H955.544H955.524H955.504H955.484H955.463H955.443H955.422H955.4H955.379H955.358H955.336H955.314H955.292H955.269H955.247H955.224H955.201H955.178H955.154H955.13H955.107H955.083H955.058H955.034H955.009H954.985H954.96H954.934H954.909H954.883H954.858H954.832H954.806H954.779H954.753H954.726H954.699H954.672H954.645H954.618H954.59H954.562H954.534H954.506H954.478H954.45H954.421H954.392H954.363H954.334H954.305H954.275H954.246H954.216H954.186H954.156H954.125H954.095H954.064H954.034H954.003H953.972H953.94H953.909H953.878H953.846H953.814H953.782H953.75H953.718H953.685H953.653H953.62H953.587H953.554H953.521H953.488H953.454H953.421H953.387H953.353H953.319H953.285H953.251H953.217H953.182H953.148H953.113H953.078H953.043H953.008H952.973H952.937H952.902H952.866H952.831H952.795H952.759H952.723H952.687H952.65H952.614H952.577H952.541H952.504H952.467H952.43H952.393H952.356H952.319H952.281H952.244H952.206H952.169H952.131H952.093H952.055H952.017H951.979H951.94H951.902H951.864H951.825H951.786H951.748H951.709H951.67H951.631H951.592H951.553H951.514H951.474H951.435H951.396H951.356H951.316H951.277H951.237H951.197H951.157H951.117H951.077H951.037H950.997H950.957H950.916H950.876H950.835H950.795H950.754H950.714H950.673H950.632H950.591H950.551H950.51H950.469H950.428H950.387H950.345H950.304H950.263H950.222H950.18H950.139H950.098H950.056H950.015H949.973H949.932H949.89H949.848H949.807H949.765H949.723H949.681H949.639H949.598H949.556H949.514H949.472H949.43H949.388H949.346H949.304H949.262H949.219H949.177H949.135H949.093H949.051H949.009H948.966H948.924H948.882H948.84H948.797H948.755H948.713H948.671H948.628H948.586H948.544H948.501H948.459H948.417H948.374H948.332H948.29H948.247H948.205H948.163H948.12H948.078H948.036H947.993H947.951H947.909H947.867H947.824H947.782H947.74H947.698H947.655H947.613H947.571H947.529H947.487H947.445H947.403H947.361H947.319H947.277H947.235H947.193H947.151H947.109H947.067H947.025H946.984H946.942H946.9H946.859H946.817H946.775H946.734H946.692H946.651H946.609H946.568H946.527H946.486H946.444H946.403H946.362H946.321H946.28H946.239H946.198H946.157H946.116H946.076H946.035H945.994H945.954H945.913H945.873H945.832H945.792H945.752H945.712H945.671H945.631H945.591H945.551H945.512H945.472H945.432H945.393H945.353H945.314H945.274H945.235H945.196H945.157H945.118H945.079H945.04H945.001H944.962H944.924H944.885H944.847H944.808H944.77H944.732H944.694H944.656H944.618H944.58H944.542H944.505H944.467H944.43H944.393H944.356H944.319H944.282H944.245H944.208H944.171H944.135H944.098H944.062H944.026H943.99H943.954H943.918H943.882H943.847H943.811H943.776H943.741H943.706H943.671H943.636H943.601H943.566H943.532H943.498H943.463H943.429H943.395H943.362H943.328H943.294H943.261H943.228H943.195H943.162H943.129H943.096H943.064H943.031H942.999H942.967H942.935H942.903H942.871H942.84H942.808H942.777H942.746H942.715H942.684H942.654H942.623H942.593H942.563H942.533H942.503H942.474H942.444H942.415H942.386H942.357H942.328H942.299H942.271H942.243H942.215H942.187H942.159H942.131H942.104H942.077H942.05H942.023H941.996H941.97H941.943H941.917H941.891H941.866H941.84H941.815H941.789H941.764H941.74H941.715H941.691H941.666H941.642H941.619H941.595H941.572H941.548H941.525H941.503H941.48H941.458H941.435H941.413H941.392H941.37H941.349H941.327H941.307H941.286H941.265H941.245H941.225H941.205H941.186H941.166H941.147H941.128H941.109H941.091H941.072H941.054H941.036H941.019H941.001H940.984H940.967H940.951H940.934H940.918H940.902H940.886H940.871H940.856H940.841H940.826H940.811H940.797H940.783H940.769H940.756H940.742H940.729H940.716H940.704H940.691H940.679H940.668H940.656H940.645H940.634H940.623H940.613H940.602H940.592H940.583H940.573H940.564H940.555H940.546H940.538H940.53H940.522H940.514H940.507H940.5H940.493H940.487H940.481H940.475H940.469H940.464H940.459H940.454H940.449H940.445H940.441H940.437H940.434H940.431H940.428H940.426H940.423H940.421H940.42H940.418H940.417H940.417H940.416C940.416 59.6286 940.416 59.6286 940.416 60.0762C940.416 60.1225 940.416 60.1735 940.416 60.2299V59.6286H939.815V60.2299V68.5822V69.1835H940.416H955.952H956.554V68.5822V60.2299Z" stroke="#1BBDE3" stroke-opacity="0.7" stroke-width="1.20255"/>
<path d="M1109.16 1.10393C1108.85 0.756698 1108.47 0.478882 1108.05 0.288649C1107.62 0.098417 1107.16 5.62687e-05 1106.7 1.80313e-06H1037.5C1037.03 -0.000485202 1036.57 0.0976844 1036.15 0.288048C1035.72 0.478412 1035.34 0.756653 1035.03 1.10446C1034.72 1.45226 1034.49 1.86175 1034.35 2.30595C1034.21 2.75015 1034.16 3.21901 1034.22 3.68165L1046.85 112.68V144.698C1046.85 145.573 1047.2 146.413 1047.82 147.033C1048.44 147.652 1049.28 148 1050.15 148H1094.04C1094.92 148 1095.76 147.652 1096.38 147.033C1097 146.413 1097.35 145.573 1097.35 144.698V112.68L1109.98 3.69108C1110.03 3.22684 1109.99 2.75613 1109.85 2.31011C1109.71 1.86409 1109.47 1.45296 1109.16 1.10393ZM1102.99 6.6047L1102.27 12.815H1041.93L1041.2 6.6047H1102.99ZM1084.22 131.026C1083.5 128.363 1081.92 126.011 1079.73 124.335C1077.54 122.658 1074.86 121.75 1072.1 121.75C1069.34 121.75 1066.66 122.658 1064.46 124.335C1062.27 126.011 1060.69 128.363 1059.97 131.026H1053.45V115.784H1090.74V131.026H1084.22ZM1077.07 131.026H1067.13C1067.67 130.204 1068.41 129.529 1069.27 129.062C1070.14 128.596 1071.11 128.351 1072.1 128.351C1073.08 128.351 1074.05 128.596 1074.92 129.062C1075.79 129.529 1076.53 130.204 1077.07 131.026ZM1091.1 109.179H1053.09L1042.69 19.4197H1101.51L1091.1 109.179ZM1053.45 141.386V137.631H1090.74V141.386H1053.45Z" fill="#1BBDE3" fill-opacity="0.2"/>
<path d="M1086.3 47.7878L1073.75 40.5434C1073.25 40.2532 1072.68 40.1004 1072.1 40.1004C1071.52 40.1004 1070.95 40.2532 1070.45 40.5434L1057.9 47.7878C1057.4 48.0775 1056.98 48.4943 1056.69 48.9961C1056.4 49.4979 1056.25 50.0672 1056.25 50.6467V65.1355C1056.25 65.715 1056.4 66.2843 1056.69 66.7861C1056.98 67.2879 1057.4 67.7046 1057.9 67.9944L1070.45 75.2388C1070.95 75.5294 1071.52 75.6824 1072.1 75.6824C1072.68 75.6824 1073.25 75.5294 1073.75 75.2388L1086.3 67.9944C1086.8 67.7046 1087.22 67.2879 1087.51 66.7861C1087.8 66.2843 1087.95 65.715 1087.95 65.1355V50.6467C1087.95 50.0672 1087.8 49.4979 1087.51 48.9961C1087.22 48.4943 1086.8 48.0775 1086.3 47.7878ZM1081.35 63.2277L1072.1 68.5662L1062.85 63.2277V52.5545L1072.1 47.216L1081.35 52.5545V63.2277Z" fill="#1BBDE3" fill-opacity="0.2"/>
<path d="M1073.45 41.0641L1073.45 41.0639C1073.04 40.8266 1072.57 40.7016 1072.1 40.7016C1071.62 40.7016 1071.16 40.8266 1070.75 41.0639L1070.75 41.0641L1058.2 48.3085C1057.79 48.5455 1057.45 48.8864 1057.21 49.2968C1056.98 49.7072 1056.85 50.1727 1056.85 50.6467L1073.45 41.0641ZM1073.45 41.0641L1086 48.3085M1073.45 41.0641L1086 48.3085M1057.9 67.9944L1058.2 67.4737L1070.75 74.7181L1070.75 74.7185C1071.16 74.956 1071.62 75.0811 1072.1 75.0811C1072.57 75.0811 1073.04 74.956 1073.45 74.7185L1073.45 74.7181L1086 67.4737L1086.3 67.9944L1086 67.4737C1086.41 67.2367 1086.75 66.8958 1086.98 66.4854C1087.22 66.075 1087.35 65.6094 1087.35 65.1355L1057.9 67.9944ZM1057.9 67.9944L1058.2 67.4737C1057.79 67.2367 1057.45 66.8958 1057.21 66.4854C1056.98 66.075 1056.85 65.6094 1056.85 65.1355C1056.85 65.1354 1056.85 65.1354 1056.85 65.1353M1057.9 67.9944L1056.85 65.1353M1086 48.3085C1086.41 48.5455 1086.75 48.8864 1086.98 49.2968C1087.22 49.7072 1087.35 50.1727 1087.35 50.6467C1087.35 50.6467 1087.35 50.6468 1087.35 50.6469M1086 48.3085L1087.35 50.6469M1056.85 65.1353V50.6469V65.1353ZM1087.35 50.6469V65.1353V50.6469ZM1037.5 0.601276H1037.5H1106.7C1107.08 0.601321 1107.45 0.681805 1107.8 0.837458C1108.15 0.993004 1108.46 1.22012 1108.71 1.50399C1108.97 1.78943 1109.16 2.12567 1109.27 2.49043C1109.39 2.85521 1109.43 3.24017 1109.38 3.61982L1109.38 3.62187L1096.75 112.611L1096.75 112.645V112.68V144.698C1096.75 145.414 1096.46 146.101 1095.95 146.608C1095.45 147.114 1094.76 147.399 1094.04 147.399H1050.15C1049.44 147.399 1048.75 147.114 1048.24 146.608C1047.74 146.101 1047.45 145.414 1047.45 144.698V112.68V112.645L1047.45 112.611L1034.82 3.61244L1034.82 3.61182C1034.77 3.23352 1034.81 2.85013 1034.92 2.48689C1035.04 2.12359 1035.23 1.78876 1035.48 1.50441C1035.73 1.22 1036.05 0.992479 1036.39 0.836816C1036.74 0.681159 1037.12 0.600878 1037.5 0.601276ZM1103.59 6.67403L1103.67 6.00343H1102.99H1041.2H1040.53L1040.61 6.67403L1041.33 12.8843L1041.39 13.4163H1041.93H1102.27H1102.81L1102.87 12.8843L1103.59 6.67403ZM1083.64 131.183L1083.76 131.627H1084.22H1090.74H1091.34V131.026V115.784V115.183H1090.74H1053.45H1052.85V115.784V131.026V131.627H1053.45H1059.97H1060.43L1060.55 131.183C1061.24 128.647 1062.74 126.409 1064.83 124.812C1066.92 123.216 1069.47 122.351 1072.1 122.351C1074.73 122.351 1077.28 123.216 1079.37 124.812C1081.45 126.409 1082.96 128.647 1083.64 131.183ZM1077.07 131.627H1078.19L1077.57 130.695C1076.97 129.789 1076.16 129.047 1075.21 128.533C1074.25 128.019 1073.18 127.75 1072.1 127.75C1071.01 127.75 1069.95 128.019 1068.99 128.533C1068.03 129.047 1067.22 129.789 1066.62 130.695L1066.01 131.627H1067.13H1077.07ZM1091.1 109.781H1091.64L1091.7 109.249L1102.1 19.4889L1102.18 18.8184H1101.51H1042.69H1042.02L1042.09 19.4889L1052.5 109.249L1052.56 109.781H1053.09H1091.1ZM1052.85 141.386V141.987H1053.45H1090.74H1091.34V141.386V137.631V137.029H1090.74H1053.45H1052.85V137.631V141.386ZM1081.65 63.7484L1081.95 63.5748V63.2277V52.5545V52.2073L1081.65 52.0338L1072.4 46.6953L1072.1 46.5217L1071.8 46.6953L1062.55 52.0338L1062.25 52.2073V52.5545V63.2277V63.5748L1062.55 63.7484L1071.8 69.0869L1072.1 69.2605L1072.4 69.0869L1081.65 63.7484Z" stroke="#1BBDE3" stroke-opacity="0.7" stroke-width="1.20255"/>
</svg>
