<svg width="24" height="24" viewBox="0 0 24 24" fill="none" xmlns="http://www.w3.org/2000/svg">
<g id="ph:instagram-logo-thin">
<path id="Vector" d="M12 7.875C11.1842 7.875 10.3866 8.11693 9.70827 8.57019C9.02992 9.02345 8.50121 9.66769 8.189 10.4214C7.87679 11.1752 7.7951 12.0046 7.95426 12.8047C8.11343 13.6049 8.50629 14.3399 9.08318 14.9168C9.66008 15.4937 10.3951 15.8866 11.1953 16.0457C11.9954 16.2049 12.8248 16.1232 13.5786 15.811C14.3323 15.4988 14.9766 14.9701 15.4298 14.2917C15.8831 13.6134 16.125 12.8158 16.125 12C16.125 10.906 15.6904 9.85677 14.9168 9.08318C14.1432 8.3096 13.094 7.875 12 7.875ZM12 15.375C11.3325 15.375 10.68 15.1771 10.125 14.8062C9.56993 14.4354 9.13735 13.9083 8.88191 13.2916C8.62646 12.6749 8.55962 11.9963 8.68985 11.3416C8.82007 10.6869 9.14151 10.0855 9.61351 9.61351C10.0855 9.14151 10.6869 8.82007 11.3416 8.68985C11.9963 8.55962 12.6749 8.62646 13.2916 8.88191C13.9083 9.13735 14.4354 9.56993 14.8062 10.125C15.1771 10.68 15.375 11.3325 15.375 12C15.375 12.8951 15.0194 13.7535 14.3865 14.3865C13.7535 15.0194 12.8951 15.375 12 15.375ZM16.125 3H7.875C6.58207 3 5.34209 3.51361 4.42785 4.42785C3.51361 5.34209 3 6.58207 3 7.875V16.125C3 16.7652 3.1261 17.3991 3.37109 17.9906C3.61608 18.582 3.97517 19.1195 4.42785 19.5721C5.34209 20.4864 6.58207 21 7.875 21H16.125C16.7652 21 17.3991 20.8739 17.9906 20.6289C18.582 20.3839 19.1195 20.0248 19.5721 19.5721C20.0248 19.1195 20.3839 18.582 20.6289 17.9906C20.8739 17.3991 21 16.7652 21 16.125V7.875C21 7.23481 20.8739 6.60088 20.6289 6.00942C20.3839 5.41796 20.0248 4.88054 19.5721 4.42785C19.1195 3.97517 18.582 3.61608 17.9906 3.37109C17.3991 3.1261 16.7652 3 16.125 3ZM20.25 16.125C20.25 17.219 19.8154 18.2682 19.0418 19.0418C18.2682 19.8154 17.219 20.25 16.125 20.25H7.875C6.78098 20.25 5.73177 19.8154 4.95818 19.0418C4.1846 18.2682 3.75 17.219 3.75 16.125V7.875C3.75 6.78098 4.1846 5.73177 4.95818 4.95818C5.73177 4.1846 6.78098 3.75 7.875 3.75H16.125C17.219 3.75 18.2682 4.1846 19.0418 4.95818C19.8154 5.73177 20.25 6.78098 20.25 7.875V16.125ZM17.625 7.125C17.625 7.27334 17.581 7.41834 17.4986 7.54168C17.4162 7.66501 17.2991 7.76114 17.162 7.81791C17.025 7.87468 16.8742 7.88953 16.7287 7.86059C16.5832 7.83165 16.4496 7.76022 16.3447 7.65533C16.2398 7.55044 16.1684 7.4168 16.1394 7.27132C16.1105 7.12583 16.1253 6.97503 16.1821 6.83799C16.2389 6.70094 16.335 6.58381 16.4583 6.5014C16.5817 6.41899 16.7267 6.375 16.875 6.375C17.0739 6.375 17.2647 6.45402 17.4053 6.59467C17.546 6.73532 17.625 6.92609 17.625 7.125Z" fill="white"/>
</g>
</svg>
