<svg width="24" height="24" viewBox="0 0 24 24" fill="none" xmlns="http://www.w3.org/2000/svg">
<g id="ph:telegram-logo-thin">
<path id="Vector" d="M21.4313 3.26238C21.2765 3.12872 21.0882 3.03976 20.8867 3.00507C20.6852 2.97039 20.478 2.99128 20.2875 3.06551L2.99062 9.86238C2.76584 9.95182 2.57587 10.1113 2.44891 10.3173C2.32194 10.5232 2.26474 10.7646 2.28578 11.0056C2.30683 11.2466 2.40501 11.4744 2.56575 11.6552C2.7265 11.836 2.94124 11.9601 3.17812 12.0093L7.875 12.9561V18.7499C7.87215 18.9731 7.93689 19.1919 8.0607 19.3776C8.18452 19.5634 8.36163 19.7073 8.56875 19.7905C8.70895 19.8463 8.85848 19.8749 9.00937 19.8749C9.15582 19.875 9.30084 19.8461 9.43603 19.7898C9.57121 19.7335 9.69386 19.6509 9.79688 19.5468L12.4781 16.8655L16.4344 20.3436C16.6371 20.5272 16.9015 20.6276 17.175 20.6249C17.2929 20.6246 17.4099 20.6056 17.5219 20.5686C17.7062 20.5082 17.8719 20.4014 18.0032 20.2586C18.1345 20.1158 18.227 19.9417 18.2719 19.753L21.7969 4.35926C21.843 4.16049 21.8333 3.95284 21.7688 3.75925C21.7042 3.56567 21.5874 3.39371 21.4313 3.26238ZM3.02812 10.9405C3.01697 10.8593 3.0342 10.7766 3.0769 10.7066C3.1196 10.6366 3.18516 10.5834 3.2625 10.5561L19.125 4.33113L8.16562 12.2436L3.32812 11.278C3.24755 11.2635 3.17419 11.2223 3.1198 11.1611C3.0654 11.0999 3.03312 11.0222 3.02812 10.9405ZM9.2625 19.0124C9.21156 19.0653 9.14585 19.1017 9.07395 19.1167C9.00204 19.1318 8.92727 19.1248 8.85938 19.0968C8.79025 19.0688 8.73103 19.0209 8.68928 18.9591C8.64753 18.8973 8.62515 18.8245 8.625 18.7499V13.4718L11.9156 16.3686L9.2625 19.0124ZM21.0656 4.19988L17.5406 19.5843C17.5266 19.6481 17.4957 19.7069 17.4512 19.7547C17.4066 19.8026 17.3501 19.8376 17.2875 19.8561C17.227 19.8779 17.1617 19.8824 17.0987 19.8691C17.0358 19.8559 16.9778 19.8254 16.9313 19.7811L8.85 12.6749L21.0094 3.89051C21.04 3.9352 21.0609 3.98586 21.0706 4.03918C21.0803 4.0925 21.0786 4.14727 21.0656 4.19988Z" fill="white"/>
</g>
</svg>
